<?xml version="1.0" encoding="utf-8"?>
<!-- Generator: Adobe Illustrator 27.5.0, SVG Export Plug-In . SVG Version: 6.00 Build 0)  -->
<svg version="1.1" id="Ñëîé_1" xmlns="http://www.w3.org/2000/svg" xmlns:xlink="http://www.w3.org/1999/xlink" x="0px" y="0px"
	 viewBox="0 0 3100 2000" style="enable-background:new 0 0 3100 2000;" xml:space="preserve">
<rect id="_x38_" style="fill:#FFFFFF;" width="3100" height="2000"/>
<g>
	<path id="_x37_" style="fill:#A2C3F2;" d="M316.691,1879.686c0,0-297.033-245.695-99.042-578.549s186.455-374.053,148.167-573.058
		c-52.525-273.002,131.07-531.579,490.474-313.027c319.584,194.337,393.517,214.289,615.787,176.132
		c222.27-38.157,323.566-321.494,604.9-257.979c316.086,71.361,97.801,600.136,502.393,545.061
		c338.779-46.117,493.072,417.161,220.853,998.363L316.691,1879.686z"/>
	<g id="_x36_">
		<path style="fill:#F1F3F2;" d="M1544.746,1606.237c-321.015-213.712-1074.116-38.985-1074.116-38.985v290.593l928.302-64.064
			c14.929-26.541,45.477-42.026,75.245-51.051c45.959-13.934,95.179-13.934,141.138,0c29.768,9.026,60.316,24.51,75.245,51.051
			l928.302,64.064v-197.633C2618.863,1660.211,1878.168,1393.815,1544.746,1606.237z"/>
		<path style="fill:#FF593A;" d="M2618.882,1877.738c-0.441,0-0.886-0.016-1.333-0.046l-934.014-64.458
			c-42.049,24.975-89.952,38.147-138.949,38.147s-96.901-13.173-138.949-38.147l-934.014,64.458
			c-10.505,0.72-19.624-7.21-20.35-17.723c-0.725-10.513,7.209-19.624,17.723-20.35l940.071-64.876
			c4.015-0.277,8.019,0.724,11.433,2.859c75.379,47.155,172.792,47.155,248.17,0c3.414-2.136,7.418-3.136,11.434-2.859
			l940.071,64.876c10.514,0.726,18.448,9.837,17.723,20.35C2637.204,1870.036,2628.821,1877.738,2618.882,1877.738z"/>
		<path style="fill:#F1F3F2;" d="M1544.583,1615.778c-1.685,0-3.379-0.445-4.901-1.357c-3.719-2.228-5.468-6.684-4.258-10.847
			c0.282-0.97,7.198-24.097,32.912-54.556c23.23-27.52,67.232-66.948,144.929-98.511c86.412-35.104,196.451-53.688,327.062-55.239
			c162.505-1.9,357.759,22.645,580.322,73.037c5.14,1.163,8.362,6.272,7.198,11.411c-1.163,5.14-6.277,8.366-11.411,7.198
			c-234.166-53.02-416.405-72.295-557.526-72.295c-158.728,0-265.451,24.362-335.811,52.496
			c-74.585,29.824-116.682,66.852-138.863,92.662c-0.874,1.018-1.727,2.026-2.555,3.026c65.422-46.885,150.781-77.91,254.62-92.445
			c102.261-14.316,222.7-12.774,357.968,4.584c229.814,29.487,425.865,95.429,427.818,96.091c4.99,1.692,7.663,7.109,5.971,12.1
			c-1.692,4.989-7.114,7.663-12.1,5.971c-1.938-0.657-196.445-66.058-424.42-95.273c-209.041-26.792-489.817-27.853-640.283,119.229
			C1549.423,1614.851,1547.014,1615.778,1544.583,1615.778z"/>
		<path style="fill:#818496;" d="M470.305,1668.853c-4.132,0.001-7.94-2.705-9.155-6.872c-1.475-5.059,1.43-10.355,6.489-11.83
			c156.81-45.72,311.127-74.478,458.665-85.475c118.14-8.807,232.234-6.311,339.113,7.42
			c182.481,23.442,279.383,70.88,283.419,72.888c4.718,2.348,6.639,8.074,4.292,12.792c-2.347,4.718-8.075,6.638-12.792,4.292
			c-1.249-0.617-99.065-48.285-278.461-71.188c-165.864-21.178-437.366-24.903-788.895,77.589
			C472.089,1668.729,471.189,1668.853,470.305,1668.853z"/>
		<path style="fill:#818496;" d="M470.624,1777.129c-4.196,0-8.041-2.789-9.199-7.032c-1.386-5.084,1.61-10.328,6.694-11.715
			c157.832-43.051,312.697-73.288,460.296-89.872c118.165-13.278,231.979-17.885,338.275-13.693
			c181.463,7.155,276.832,37.07,280.803,38.341c5.019,1.604,7.786,6.975,6.181,11.993c-1.604,5.017-6.972,7.781-11.989,6.183l0,0
			c-0.955-0.305-97.57-30.525-276.784-37.49c-165.444-6.435-437.103,6.21-791.759,102.947
			C472.3,1777.02,471.455,1777.129,470.624,1777.129z"/>
		<path style="fill:#818496;" d="M2618.548,1731.978c-0.842,0-1.697-0.112-2.548-0.348
			c-376.261-104.021-646.638-117.288-807.188-110.103c-173.863,7.782-259.912,40.557-260.761,40.887
			c-4.909,1.91-10.438-0.518-12.351-5.425c-1.913-4.906,0.507-10.433,5.412-12.35c3.547-1.387,88.911-34.051,265.406-42.109
			c103.26-4.714,216.438,0.082,336.401,14.254c149.788,17.696,310.666,50.148,478.164,96.455c5.079,1.403,8.058,6.659,6.653,11.737
			C2626.569,1729.204,2622.73,1731.978,2618.548,1731.978z"/>
		<path style="fill:#818496;" d="M2618.551,1803.323c-0.699,0-1.408-0.077-2.119-0.238
			c-365.398-82.867-637.192-103.286-800.856-105.822c-176.851-2.742-268.309,14.184-269.211,14.355
			c-5.179,0.979-10.169-2.419-11.151-7.597c-0.982-5.177,2.419-10.169,7.596-11.151c3.766-0.714,94.282-17.445,273.063-14.687
			c104.768,1.624,218.129,9.697,336.935,23.997c148.422,17.863,305.828,45.552,467.847,82.295c5.139,1.166,8.359,6.276,7.194,11.415
			C2626.842,1800.318,2622.907,1803.323,2618.551,1803.323z"/>
	</g>
	<g id="_x35_">
		<path style="fill:#9B453A;" d="M1552.657,943.992c-1.413,0-2.719-0.754-3.426-1.978l-77.865-134.867H1228.33
			c-100.345,0-181.981-81.636-181.981-181.981c0-100.345,81.636-181.982,181.981-181.982h648.656
			c100.345,0,181.981,81.636,181.981,181.981s-81.637,181.981-181.981,181.981h-243.036l-77.866,134.867
			C1555.376,943.238,1554.07,943.992,1552.657,943.992z M1228.33,451.097c-95.982,0-174.07,78.087-174.07,174.07
			s78.087,174.07,174.07,174.07h245.321c1.413,0,2.719,0.754,3.426,1.978l75.581,130.911l75.582-130.911
			c0.707-1.224,2.013-1.978,3.426-1.978h245.32c95.982,0,174.069-78.087,174.069-174.069c0-95.982-78.087-174.07-174.069-174.07
			H1228.33z"/>
		<path style="fill:#FF593A;" d="M1861.163,431.318h-648.656c-98.321,0-178.025,79.705-178.025,178.025v0
			c0,98.321,79.705,178.025,178.025,178.025h245.321l79.007,136.844l79.007-136.844h245.321
			c98.321,0,178.025-79.705,178.025-178.025v0C2039.188,511.023,1959.484,431.318,1861.163,431.318z"/>
		<polygon style="fill:#FFB12A;" points="1236.323,668.452 1197.905,648.26 1159.492,668.461 1166.824,625.684 1135.741,595.394 
			1178.69,589.148 1197.893,550.226 1217.106,589.143 1260.056,595.378 1228.981,625.677 		"/>
		<polygon style="fill:#FFB12A;" points="1405.791,668.452 1367.373,648.26 1328.96,668.461 1336.292,625.684 1305.209,595.394 
			1348.158,589.148 1367.361,550.226 1386.574,589.143 1429.524,595.378 1398.449,625.677 		"/>
		<polygon style="fill:#FFB12A;" points="1575.259,668.452 1536.841,648.26 1498.428,668.461 1505.76,625.684 1474.677,595.394 
			1517.626,589.148 1536.829,550.226 1556.042,589.143 1598.992,595.378 1567.917,625.677 		"/>
		<polygon style="fill:#FFB12A;" points="1744.727,668.452 1706.309,648.26 1667.896,668.461 1675.228,625.684 1644.145,595.394 
			1687.094,589.148 1706.297,550.226 1725.51,589.143 1768.46,595.378 1737.385,625.677 		"/>
		<polygon style="fill:#F1F3F2;" points="1914.195,668.452 1875.777,648.26 1837.364,668.461 1844.696,625.684 1813.613,595.394 
			1856.562,589.148 1875.765,550.226 1894.978,589.143 1937.928,595.378 1906.853,625.677 		"/>
	</g>
	<g id="_x34_">
		<path style="fill:#30313C;" d="M2318.463,1323.121c6.615,0.06,13.131-3.155,17.101-9.158c6.276-9.495,3.802-22.367-5.527-28.751
			l-423.793-290.001c-9.332-6.385-21.981-3.86-28.259,5.632c-6.276,9.495-3.802,22.367,5.527,28.751l423.793,290.001
			C2310.737,1321.943,2314.617,1323.086,2318.463,1323.121z"/>
		
			<ellipse transform="matrix(0.7071 -0.7071 0.7071 0.7071 -171.3022 1682.8529)" style="fill:#30313C;" cx="1945.732" cy="1048.206" rx="149.535" ry="149.535"/>
		<path style="fill:#7CE1F7;" d="M2025.855,974.324c40.807,44.234,38.017,113.208-6.234,154.006
			c-4.788,4.413-9.868,8.311-15.162,11.719c-6.023,3.87-12.348,7.083-18.874,9.629c-6.347,2.514-12.89,4.387-19.513,5.618
			c-13.482,2.553-27.312,2.546-40.74-0.015c-22.181-4.204-43.232-15.313-59.716-33.184c-40.815-44.26-38.017-113.208,6.234-154.005
			c6.702-6.192,13.982-11.383,21.653-15.565c12.206-6.687,25.39-10.833,38.802-12.489c6.738-0.843,13.53-1.038,20.297-0.607
			c7.031,0.449,14.034,1.568,20.895,3.357C1992.946,947.902,2011.198,958.442,2025.855,974.324z"/>
		<path style="fill:#B3F4FF;" d="M1932.304,940.037l33.768,215.258c-13.482,2.553-27.312,2.546-40.74-0.015l-31.83-202.755
			C1905.709,945.839,1918.892,941.693,1932.304,940.037z"/>
		<path style="fill:#B3F4FF;" d="M1973.496,942.787l30.963,197.261c-6.023,3.87-12.348,7.083-18.874,9.629l-32.984-210.248
			C1959.632,939.879,1966.635,940.997,1973.496,942.787z"/>
	</g>
	<g id="_x33_">
		<path style="fill:#2A3047;" d="M1051.672,1005.95c0,0-21.851,15.808-36.059,54.942c-10.287,28.333-48.529,148.802-45.202,182.767
			c5.761,58.808,64.949,75.531,106.102,70.584c68.226-8.201,88.962-52.511,103.65-97.874
			c14.688-45.363-26.193-88.251-16.009-139.518c0,0-12.275-45.082-39.289-52.899
			C1097.849,1016.135,1051.672,1005.95,1051.672,1005.95z"/>
		
			<rect x="1074.2" y="1105.804" transform="matrix(0.9949 -0.1012 0.1012 0.9949 -110.4019 117.2418)" style="fill:#F69D85;" width="52.175" height="81.789"/>
		<path style="fill:#D1836B;" d="M1090.558,1155.197c0,0,18.675,5.391,36.817,0.002l-2.694-26.485L1090.558,1155.197z"/>
		<path style="fill:#60BF60;" d="M1135.311,1171.574c0,0-4.099,4.38,0.999,58.451c5.097,54.071,28.178,154.518,53.209,159.878
			c25.031,5.361,113.841-31.967,143.676-52.98c0,0,0.285-45.385-30.375-62.079l-70.386,21.039
			C1232.433,1295.883,1203.44,1169.003,1135.311,1171.574z"/>
		<path style="fill:#F69D85;" d="M1106.466,1156.116L1106.466,1156.116c30.216-2.247,52.889-28.564,50.642-58.78l-2.112-28.4
			c-2.247-30.216-28.564-52.889-58.78-50.642h0c-30.216,2.247-52.889,28.564-50.642,58.78l2.112,28.4
			C1049.934,1135.691,1076.25,1158.364,1106.466,1156.116z"/>
		<path style="fill:#F69D85;" d="M1125.239,1483.411c47.943-4.877,117.883-25.23,92.53-89.149
			c-13.02-32.825-27.414-77.217-26.068-138.825c0.788-36.061-54.552-101.722-87.907-89.96l-3.15,0.321
			c-46.712,5.505-64.939,54.503-55.15,101.689c12.616,60.817,2.662,105.015-6.988,137.15
			C1012.052,1492.73,1125.239,1483.411,1125.239,1483.411z"/>
		<path style="fill:#F69D85;" d="M1224.925,1863.924c-2.345,0.001-4.723-0.232-7.109-0.717c-19.256-3.906-31.7-22.682-27.794-41.938
			l59.595-293.814l-136.038,4.928c-19.658,0.718-36.129-14.63-36.84-34.264c-0.711-19.635,14.63-36.129,34.265-36.84l181.169-6.563
			c10.901-0.383,21.367,4.228,28.418,12.541s9.902,19.401,7.735,30.084l-68.572,338.073
			C1256.332,1852.283,1241.496,1863.923,1224.925,1863.924z"/>
		<path style="fill:#404D7F;" d="M1187.318,1865.142c0.439,1.674,1.173,3.22,2.146,4.578c2.412,3.377,6.292,5.592,10.695,5.611
			l100.706,0.268c5.013,0.019,8.825-2.867,10.74-6.728c0.591-1.172,1-2.442,1.21-3.752c0.638-3.929-0.497-8.193-3.948-11.333
			l-13.899-12.641l-14.938-13.587c-46.606,7-91.176-5.557-91.176-5.557l-1.12,21.989l-0.854,16.839
			C1186.802,1862.326,1186.955,1863.773,1187.318,1865.142z"/>
		<path style="fill:#404D7F;" d="M1288.376,1835.15c0,0-21.059-19.348-27.325-23.973c-6.266-4.625-21.988,1.143-20.272,7.56
			c1.716,6.416,12.559,16.582,12.559,16.582L1288.376,1835.15z"/>
		<path style="fill:#606A97;" d="M1313.47,1864.556c-0.141-0.165-0.339-0.265-0.546-0.289c-0.033-0.008-0.074-0.017-0.107-0.017
			l-37.739,0.008l-28.515,0.008h-32.366l-26.878,0.008c-0.066,0-0.132,0.008-0.19,0.025c-0.198,0.041-0.372,0.149-0.496,0.314
			c-0.091,0.116-0.149,0.256-0.174,0.388c0.008,0.24,0.017,0.355,0.017,0.355c1.231,4.744,4.678,8.431,9.009,10.001
			c1.471,0.537,3.05,0.835,4.67,0.843l100.703,0.264h0.058c1.984-0.008,3.753-0.413,5.29-1.107c4.29-1.942,6.819-6.133,7.463-10.1
			C1313.71,1865.01,1313.635,1864.754,1313.47,1864.556z"/>
		<path style="fill:#FFFFFF;" d="M1272.546,1847.367c0.315,0,0.619-0.173,0.772-0.473c4.6-9.036,15.094-10.871,15.2-10.889
			c0.472-0.078,0.791-0.524,0.714-0.995c-0.078-0.473-0.524-0.789-0.994-0.714c-0.465,0.076-11.456,1.98-16.463,11.813
			c-0.217,0.426-0.047,0.948,0.379,1.165C1272.279,1847.337,1272.413,1847.367,1272.546,1847.367z"/>
		<path style="fill:#FFFFFF;" d="M1265.19,1840.547c0.315,0,0.619-0.173,0.772-0.473c4.6-9.036,15.094-10.871,15.199-10.889
			c0.472-0.078,0.791-0.524,0.713-0.995c-0.078-0.472-0.525-0.788-0.994-0.714c-0.465,0.076-11.456,1.98-16.462,11.813
			c-0.217,0.426-0.047,0.947,0.379,1.165C1264.923,1840.517,1265.058,1840.547,1265.19,1840.547z"/>
		<path style="fill:#FFFFFF;" d="M1258.152,1834.202c0.315,0,0.619-0.173,0.772-0.473c4.6-9.035,15.094-10.871,15.199-10.888
			c0.472-0.078,0.791-0.524,0.714-0.995c-0.078-0.473-0.522-0.79-0.994-0.714c-0.465,0.076-11.456,1.98-16.463,11.812
			c-0.217,0.426-0.047,0.947,0.379,1.165C1257.885,1834.172,1258.02,1834.202,1258.152,1834.202z"/>
		<path style="fill:#606A97;" d="M1294.966,1841.145c0,0,20.998,12.149,18.702,24.113l-38.699-0.375
			C1274.969,1864.884,1277.237,1847.08,1294.966,1841.145z"/>
		<path style="fill:#606A97;" d="M1187.732,1843.99c0,0,22.111,1.432,26.465,20.281l-27.718,1.089
			C1186.479,1865.36,1186.079,1857.597,1187.732,1843.99z"/>
		<path style="fill:#FFB12A;" d="M1179.553,1405.932c0,0,126.18,53.801,155.943,111.282c27.276,52.676-45.345,266.6-45.345,266.6
			s-50.787,20.71-115.096,0l31.226-211.733c0,0-68.999-6.926-127.935-30.788c-81.604-33.04-50.064-126.962-50.064-126.962
			s41.375,12.692,95.329,5.062C1139.22,1417.185,1179.553,1405.932,1179.553,1405.932z"/>
		<path style="fill:#F69D85;" d="M1367.307,1857.672c-19.064,0.002-34.846-15.104-35.531-34.309l-10.077-282.863l-153.083-46.655
			c-18.795-5.728-29.387-25.607-23.659-44.401c5.728-18.794,25.607-29.386,44.402-23.659l177.361,54.054
			c14.526,4.427,24.641,17.587,25.182,32.764l10.981,308.228c0.699,19.635-14.651,36.12-34.286,36.82
			C1368.166,1857.665,1367.734,1857.672,1367.307,1857.672z"/>
		<path style="fill:#404D7F;" d="M1329.645,1865.142c0.439,1.674,1.173,3.22,2.146,4.578c2.412,3.377,6.292,5.592,10.695,5.611
			l100.706,0.268c5.013,0.019,8.825-2.867,10.74-6.728c0.591-1.172,1-2.442,1.21-3.752c0.638-3.929-0.497-8.193-3.948-11.333
			l-13.899-12.641l-14.938-13.587c-46.606,7-91.176-5.557-91.176-5.557l-1.12,21.989l-0.854,16.839
			C1329.13,1862.326,1329.282,1863.773,1329.645,1865.142z"/>
		<path style="fill:#404D7F;" d="M1430.704,1835.15c0,0-21.059-19.348-27.325-23.973s-21.988,1.143-20.272,7.56
			c1.716,6.416,12.559,16.582,12.559,16.582L1430.704,1835.15z"/>
		<path style="fill:#606A97;" d="M1455.798,1864.556c-0.141-0.165-0.339-0.265-0.546-0.289c-0.033-0.008-0.074-0.017-0.107-0.017
			l-37.739,0.008l-28.515,0.008h-32.366l-26.879,0.008c-0.066,0-0.132,0.008-0.19,0.025c-0.198,0.041-0.372,0.149-0.496,0.314
			c-0.091,0.116-0.149,0.256-0.174,0.388c0.008,0.24,0.016,0.355,0.016,0.355c1.232,4.744,4.678,8.431,9.009,10.001
			c1.471,0.537,3.05,0.835,4.67,0.843l100.703,0.264h0.058c1.984-0.008,3.752-0.413,5.29-1.107c4.29-1.942,6.819-6.133,7.464-10.1
			C1456.037,1865.01,1455.963,1864.754,1455.798,1864.556z"/>
		<path style="fill:#FFFFFF;" d="M1414.873,1847.367c0.315,0,0.619-0.173,0.772-0.473c4.6-9.036,15.094-10.871,15.199-10.889
			c0.472-0.078,0.791-0.524,0.714-0.995c-0.078-0.473-0.524-0.789-0.994-0.714c-0.465,0.076-11.456,1.98-16.463,11.813
			c-0.217,0.426-0.047,0.948,0.379,1.165C1414.606,1847.337,1414.74,1847.367,1414.873,1847.367z"/>
		<path style="fill:#FFFFFF;" d="M1407.518,1840.547c0.315,0,0.619-0.173,0.772-0.473c4.6-9.036,15.094-10.871,15.199-10.889
			c0.472-0.078,0.791-0.524,0.714-0.995c-0.078-0.472-0.525-0.788-0.994-0.714c-0.465,0.076-11.456,1.98-16.462,11.813
			c-0.217,0.426-0.047,0.947,0.379,1.165C1407.251,1840.517,1407.385,1840.547,1407.518,1840.547z"/>
		<path style="fill:#FFFFFF;" d="M1400.479,1834.202c0.315,0,0.619-0.173,0.772-0.473c4.6-9.035,15.094-10.871,15.199-10.888
			c0.472-0.078,0.791-0.524,0.714-0.995c-0.078-0.473-0.522-0.79-0.994-0.714c-0.465,0.076-11.456,1.98-16.463,11.812
			c-0.217,0.426-0.047,0.947,0.379,1.165C1400.213,1834.172,1400.347,1834.202,1400.479,1834.202z"/>
		<path style="fill:#606A97;" d="M1437.294,1841.145c0,0,20.998,12.149,18.702,24.113l-38.7-0.375
			C1417.296,1864.884,1419.565,1847.08,1437.294,1841.145z"/>
		<path style="fill:#606A97;" d="M1330.06,1843.99c0,0,22.111,1.432,26.465,20.281l-27.718,1.089
			C1328.807,1865.36,1328.406,1857.597,1330.06,1843.99z"/>
		<path style="fill:#FFB12A;" d="M1187.669,1398.578c0,0,153.031,21.713,203.166,91.69c38.099,53.179,39.991,293.545,39.991,293.545
			s-50.787,20.71-115.096,0l-16.289-210.889c0,0-86.483-4.028-146.688-24.479c-97.226-33.027-113.564-134.115-113.564-134.115
			L1187.669,1398.578z"/>
		<path style="fill:#30313C;" d="M1092.786,1082.994c0.302,4.081-1.141,7.514-3.221,7.667c-2.08,0.154-4.011-3.03-4.313-7.111
			c-0.302-4.081,1.14-7.514,3.221-7.667C1090.553,1075.729,1092.484,1078.913,1092.786,1082.994z"/>
		<path style="fill:#30313C;" d="M1125.819,1080.552c0.302,4.081-1.14,7.514-3.221,7.667c-2.08,0.154-4.011-3.03-4.313-7.11
			c-0.302-4.081,1.14-7.514,3.221-7.667S1125.517,1076.471,1125.819,1080.552z"/>
		<path style="fill:#D1836B;" d="M1070.266,1099.329c-0.249,2.918,2.142,5.505,5.339,5.777s5.992-1.872,6.241-4.79
			c0.249-2.918-2.142-5.504-5.339-5.777C1073.309,1094.267,1070.515,1096.411,1070.266,1099.329z"/>
		<path style="fill:#D1836B;" d="M1131.981,1097.156c-0.249,2.918,2.142,5.505,5.34,5.777c3.198,0.273,5.992-1.872,6.241-4.79
			c0.249-2.918-2.142-5.505-5.34-5.777C1135.024,1092.094,1132.23,1094.238,1131.981,1097.156z"/>
		<path style="fill:#60BF60;" d="M1128.646,1167.677c0,0,23.15,9.811,51.47,40.708c8.59,9.371,31.024,34.883,32.704,51.392
			c1.826,17.949-15.447,29.998-12.141,62.5c3.278,32.225,32.067,62.165,20.2,83.654c-6.98,12.64-132.451,40.925-186.381,13.461
			c-30.005-15.28,21.814-69.686-1.99-156.391c-10.352-37.707,24.183-78.994,44.195-90.04c0,0,29.43,19.645,47.195,16.917
			C1142.139,1187.078,1128.646,1167.677,1128.646,1167.677z"/>
		<path style="fill:#F69D85;" d="M1029.397,1095.256c0.597,8.026,7.588,14.049,15.614,13.452
			c8.026-0.597,14.049-7.588,13.452-15.614s-7.588-14.049-15.614-13.452C1034.823,1080.239,1028.8,1087.229,1029.397,1095.256z"/>
		<path style="fill:#2A3047;" d="M1117.088,1006.295c0,0,24.968-9.206,43.084,13.95c15.846,20.254,10.143,43.069,1.259,64.403
			C1161.431,1084.647,1125.266,1039.503,1117.088,1006.295z"/>
		<path style="fill:#F69D85;" d="M1141.897,1089.313c0.597,8.026,7.588,14.049,15.614,13.452
			c8.026-0.597,14.049-7.588,13.452-15.614s-7.588-14.049-15.614-13.452C1147.323,1074.296,1141.301,1081.287,1141.897,1089.313z"/>
		<path style="fill:#2C9B2C;" d="M1222.663,1386.423c-0.347,0-0.651-0.254-0.703-0.608c-1.281-8.666-7.682-20.917-7.746-21.04
			c-19.641-45.201-12.753-64.119-7.218-79.319c3.443-9.458,6.418-17.626,2.848-30.094c-6.545-22.866-34.393-49.096-34.674-49.358
			c-0.287-0.269-0.302-0.718-0.034-1.006c0.268-0.287,0.719-0.303,1.006-0.034c0.283,0.265,28.416,26.76,35.07,50.005
			c3.696,12.913,0.649,21.282-2.88,30.973c-5.732,15.743-12.228,33.585,7.164,78.218c0.245,0.462,6.555,12.539,7.871,21.446
			c0.057,0.389-0.211,0.751-0.6,0.808C1222.732,1386.42,1222.697,1386.423,1222.663,1386.423z"/>
		<path style="fill:#AF5945;" d="M1156.907,1096.69c-0.317-0.102-0.557-0.386-0.588-0.74c-0.474-5.568,3.167-6.933,5.576-7.837
			c1.079-0.404,2.097-0.787,2.355-1.36c0.143-0.318,0.094-0.794-0.146-1.416c-1.882-4.888-7.975-4.714-8.234-4.705
			c-0.468,0.019-0.867-0.348-0.885-0.819c-0.019-0.47,0.347-0.867,0.817-0.887c0.307-0.013,7.569-0.242,9.896,5.797
			c0.415,1.078,0.451,1.97,0.11,2.729c-0.549,1.222-1.891,1.726-3.312,2.259c-2.379,0.893-4.839,1.815-4.475,6.094
			c0.04,0.47-0.309,0.883-0.778,0.923C1157.126,1096.739,1157.013,1096.724,1156.907,1096.69z"/>
		<path style="fill:#AF5945;" d="M1044.222,1102.518c-0.364-0.118-0.615-0.471-0.588-0.869c0.291-4.285-2.183-5.166-4.578-6.018
			c-1.429-0.509-2.781-0.99-3.35-2.203c-0.353-0.753-0.332-1.646,0.065-2.73c2.224-6.077,9.488-5.97,9.796-5.963
			c0.473,0.012,0.843,0.403,0.831,0.872c-0.011,0.471-0.401,0.844-0.872,0.834c-0.259-0.005-6.353-0.076-8.153,4.843
			c-0.229,0.626-0.27,1.103-0.122,1.419c0.267,0.569,1.291,0.933,2.376,1.32c2.424,0.863,6.088,2.168,5.708,7.742
			c-0.031,0.471-0.439,0.826-0.91,0.794C1044.356,1102.552,1044.287,1102.539,1044.222,1102.518z"/>
		<path style="fill:#2A3047;" d="M1137.149,1021.913c0,0-10.623,30.174-40.541,31.627c-35.134,1.707-48.499,46.787-48.499,46.787
			s-21.139-33.217-15.878-57.514C1044.266,987.227,1101.01,972.167,1137.149,1021.913z"/>
		<path style="fill:#AF5945;" d="M1113.253,1063.774c-0.229-0.074-0.442-0.207-0.616-0.398c-0.532-0.585-0.49-1.491,0.095-2.023
			c2.875-2.617,5.906-3.778,9.009-3.45c5.237,0.556,8.628,5.206,8.77,5.404c0.46,0.643,0.313,1.538-0.33,1.998
			c-0.642,0.461-1.536,0.314-1.996-0.327l0,0c-0.028-0.038-2.809-3.818-6.761-4.228c-2.249-0.232-4.524,0.683-6.761,2.721
			C1114.267,1063.829,1113.726,1063.927,1113.253,1063.774z"/>
		<path style="fill:#AF5945;" d="M1080.792,1067.488c-0.156-0.05-0.306-0.128-0.442-0.235c-0.622-0.488-0.732-1.388-0.244-2.011
			c2.789-3.56,5.885-5.45,9.201-5.617c4.673-0.236,7.939,3.105,8.076,3.247c0.548,0.57,0.529,1.477-0.041,2.025
			c-0.569,0.546-1.469,0.533-2.022-0.037c-0.038-0.039-2.545-2.557-5.895-2.373c-2.442,0.133-4.818,1.654-7.064,4.521
			C1081.98,1067.495,1081.348,1067.668,1080.792,1067.488z"/>
		<path style="fill:#AF5945;" d="M1107.772,1105.274c-0.234-0.076-0.433-0.252-0.531-0.498c-0.173-0.438,0.041-0.934,0.479-1.108
			c1.924-0.763,5.764-2.879,5.353-4.55c-0.572-2.329-5.74-12.398-7.683-16.081c-0.22-0.417-0.06-0.933,0.357-1.153
			c0.418-0.219,0.934-0.059,1.153,0.357c0.289,0.548,7.092,13.463,7.831,16.471c0.875,3.561-5.638,6.25-6.383,6.545
			C1108.156,1105.331,1107.954,1105.333,1107.772,1105.274z"/>
		<path style="fill:#DB7777;" d="M1115.853,1117.447c-0.346,2.388-4.675,3.737-9.668,3.013s-8.761-3.247-8.414-5.635
			c0.346-2.388,4.675-3.737,9.668-3.013C1112.432,1112.536,1116.199,1115.059,1115.853,1117.447z"/>
		<path style="fill:#AF5945;" d="M1111.317,1117.87c2.958,0.018,6.196-0.364,9.648-1.366c0.459-0.133,0.723-0.613,0.59-1.072
			c-0.134-0.459-0.616-0.724-1.072-0.59c-14.822,4.303-25.804-3.692-25.914-3.774c-0.382-0.286-0.925-0.207-1.211,0.176
			c-0.286,0.383-0.207,0.924,0.175,1.211C1093.903,1112.73,1100.844,1117.806,1111.317,1117.87z"/>
		<path style="fill:#F69D85;" d="M1192.362,1339.26c8.849-12.934,18.914-26.057,27.299-31.687
			c3.775-2.535,13.803-5.307,10.671-12.066c-4.924-8.866-39.044,15.567-44.23,20.931
			C1169.981,1328.789,1177.335,1352.436,1192.362,1339.26z"/>
		<path style="fill:#F69D85;" d="M1021.241,1385.79c-5.779,0-11.375-2.35-15.44-6.607c-4.947-5.183-6.964-12.503-5.369-19.489
			l35.629-156.059c2.624-11.494,14.07-18.682,25.561-16.059c11.493,2.624,18.683,14.068,16.059,25.561l-28.443,124.586
			l144.831-26.043c11.605-2.082,22.7,5.628,24.786,17.231c2.087,11.602-5.628,22.699-17.231,24.786l-176.605,31.757
			C1023.761,1385.679,1022.496,1385.79,1021.241,1385.79z"/>
		<polygon style="fill:#FF593A;" points="1305.078,1383.923 1347.635,1347.703 1367.441,1204.367 1324.884,1240.587 		"/>
		<polygon style="fill:#FF593A;" points="1206.167,1371.128 1305.078,1383.923 1324.884,1240.587 1225.973,1227.791 		"/>
		<polygon style="fill:#F1F3F2;" points="1352.278,1205.485 1311.13,1238.808 1324.884,1240.587 1364.231,1207.099 		"/>
		<polygon style="fill:#F1F3F2;" points="1240.721,1221.708 1333.271,1233.382 1324.884,1240.587 1232.433,1228.645 		"/>
		<path style="fill:#F69D85;" d="M1198.297,1311.834c15.668-0.293,32.163-1.498,41.473-5.414c4.191-1.763,12.015-8.622,15.944-2.292
			c4.706,8.984-34.45,24.082-41.781,25.471C1194.757,1336.288,1179.033,1317.157,1198.297,1311.834z"/>
		<path style="fill:#F69D85;" d="M1216.425,1318.235c9.659,1.526,19.782,0.16,29.204-2.557c5.141-0.587,12.752-7.807,16.187-1.067
			c2.846,7.263-17.437,13.857-22.721,16.38c-7.761,2.727-15.991,4.73-24.31,4.81
			C1203.313,1334.677,1204.927,1317.214,1216.425,1318.235z"/>
		<path style="fill:#F69D85;" d="M1209.657,1329.629c14.722,3.297,30.768,1.604,44.354-5.141c4.996-2.472,9.264,5.037,4.632,8.069
			c-5.44,3.922-11.553,7.17-17.876,9.502c-11.023,3.878-22.876,5.867-34.58,4.908
			C1193.566,1345.438,1197.401,1326.18,1209.657,1329.629z"/>
		<path style="fill:#F69D85;" d="M1186.31,1338.015c14.996,5.145,31.401,7.635,47.156,5.402c5.212-0.776,10.29-2.221,15.089-4.376
			c2.377-1.154,5.264-0.108,6.326,2.318c3.509,10.378-29.825,15.945-37.114,16.277c-12.535,0.824-27.152-0.821-39.379-3.719
			C1166.24,1350.542,1174.727,1332.969,1186.31,1338.015z"/>
		<path style="fill:#F69D85;" d="M1350.894,1277.809c1.355,2.911,5.305,3.943,8.822,2.305c3.517-1.637,5.269-5.324,3.914-8.235
			c-1.355-2.911-5.305-3.942-8.822-2.305C1351.291,1271.212,1349.538,1274.899,1350.894,1277.809z"/>
		<path style="fill:#F69D85;" d="M1350.052,1287.489c1.355,2.91,5.305,3.942,8.822,2.305c3.517-1.638,5.269-5.324,3.914-8.235
			c-1.355-2.911-5.305-3.942-8.822-2.305C1350.449,1280.892,1348.697,1284.579,1350.052,1287.489z"/>
		<path style="fill:#F69D85;" d="M1348.368,1297.366c1.355,2.91,5.305,3.943,8.822,2.305c3.517-1.637,5.269-5.324,3.914-8.235
			c-1.355-2.911-5.305-3.943-8.822-2.305C1348.765,1290.768,1347.012,1294.455,1348.368,1297.366z"/>
		<path style="fill:#F69D85;" d="M1347.296,1307.188c1.355,2.911,5.305,3.943,8.822,2.305c3.517-1.638,5.269-5.325,3.914-8.235
			c-1.355-2.911-5.305-3.942-8.822-2.305C1347.693,1300.591,1345.94,1304.277,1347.296,1307.188z"/>
		<path style="fill:#60BF60;" d="M1070.196,1177.954c0,0-38.054-8.151-54.041,43.754c-15.986,51.905-38.512,150.729-17.44,165.262
			c21.073,14.533,133.704-9.447,169.31-17.44c0,0,11.172-36.516-10.764-63.674l-87.066,12.504
			C1070.196,1318.361,1115.517,1190.567,1070.196,1177.954z"/>
		<path style="fill:#2C9B2C;" d="M1034.097,1392.525c-2.914,0-5.669-0.086-8.246-0.267c-0.392-0.027-0.687-0.367-0.66-0.759
			c0.028-0.392,0.37-0.694,0.76-0.66c42.308,2.964,134.527-20.128,141.487-21.893c9.589-38.562-8.156-59.797-10.444-62.331
			l-86.697,12.451c-0.247,0.037-0.494-0.061-0.652-0.254c-0.158-0.193-0.203-0.454-0.12-0.689
			c0.196-0.551,19.623-55.517,20.099-98.754c0.004-0.39,0.322-0.704,0.712-0.704c0.002,0,0.005,0,0.008,0.001
			c0.393,0.004,0.708,0.326,0.704,0.719c-0.441,40.062-17.037,90.065-19.796,98.106l85.909-12.338
			c0.224-0.032,0.447,0.044,0.606,0.203c0.217,0.218,21.582,22.3,10.949,64.35c-0.064,0.253-0.26,0.449-0.512,0.515
			C1167.281,1370.457,1080.915,1392.523,1034.097,1392.525z"/>
		<path style="fill:#2C9B2C;" d="M1124.032,1199.337c-16.591,0-42.852-10.925-54.302-20.845c-0.297-0.257-0.329-0.706-0.072-1.003
			c0.257-0.298,0.706-0.331,1.004-0.072c13.967,12.1,50.238,25.836,62.733,18.556c2.748-1.6,4.509-3.876,5.235-6.764
			c1.917-7.625-3.867-17.166-3.925-17.262c-0.205-0.335-0.101-0.773,0.234-0.979c0.335-0.204,0.773-0.1,0.979,0.233
			c0.252,0.41,6.155,10.139,4.094,18.351c-0.822,3.275-2.807,5.849-5.9,7.651
			C1131.568,1198.684,1128.089,1199.337,1124.032,1199.337z"/>
		<path style="fill:#2C9B2C;" d="M1157.745,1372.776c-0.051,0-0.103-0.006-0.154-0.017c-0.384-0.085-0.626-0.465-0.542-0.848
			c8.197-37.138-11.498-63.731-11.698-63.995c-0.237-0.313-0.175-0.76,0.138-0.997c0.313-0.236,0.76-0.176,0.996,0.138
			c0.204,0.269,20.297,27.358,11.954,65.16C1158.365,1372.549,1158.071,1372.776,1157.745,1372.776z"/>
		<path style="fill:#997243;" d="M1244.286,1767.585c-18.139,0-40.259-2.404-65.497-9.754c-0.377-0.11-0.594-0.505-0.484-0.881
			c0.11-0.378,0.504-0.594,0.882-0.484c72.067,20.987,118.433,1.419,118.892,1.219c0.359-0.158,0.779,0.007,0.936,0.368
			c0.157,0.36-0.008,0.78-0.368,0.936C1298.345,1759.122,1278.323,1767.585,1244.286,1767.585z"/>
		<path style="fill:#997243;" d="M1310.59,1717.967c-0.05,0-0.102-0.006-0.153-0.017c-0.384-0.084-0.627-0.463-0.543-0.848
			c0.229-1.046,23.003-105.183,31.029-151.896c3.791-22.062-3.827-45.863-22.031-68.829c-16.733-21.112-41.667-40.349-70.207-54.169
			c-0.354-0.171-0.502-0.596-0.331-0.95c0.172-0.355,0.598-0.501,0.951-0.33c28.73,13.911,53.839,33.289,70.703,54.566
			c18.461,23.292,26.179,47.481,22.318,69.953c-8.031,46.745-30.813,150.913-31.042,151.96
			C1311.212,1717.74,1310.917,1717.967,1310.59,1717.967z"/>
		<path style="fill:#997243;" d="M1371.454,1768.64c-34.556,0-57.52-8.452-57.862-8.581c-0.368-0.139-0.553-0.55-0.414-0.917
			c0.138-0.367,0.547-0.553,0.917-0.415c0.51,0.193,51.742,19.026,116.53-0.017c0.377-0.107,0.773,0.105,0.883,0.482
			c0.111,0.378-0.105,0.772-0.482,0.884C1409.176,1766.498,1388.844,1768.64,1371.454,1768.64z"/>
		<path style="fill:#9B453A;" d="M1305.079,1384.635c-0.032,0-0.065-0.003-0.098-0.007c-0.39-0.053-0.661-0.412-0.607-0.802
			l19.806-143.336c0.054-0.389,0.409-0.664,0.802-0.607c0.389,0.053,0.661,0.412,0.607,0.802l-19.806,143.336
			C1305.734,1384.377,1305.429,1384.635,1305.079,1384.635z"/>
		<path style="fill:#AF5945;" d="M1219.518,1322.943c-0.379,0-0.694-0.299-0.71-0.681c-0.017-0.392,0.287-0.725,0.68-0.742
			c13.932-0.605,27.257-6.762,27.391-6.824c0.354-0.166,0.779-0.014,0.946,0.344c0.166,0.356,0.012,0.78-0.344,0.946
			c-0.136,0.063-13.718,6.339-27.931,6.957C1219.539,1322.943,1219.528,1322.943,1219.518,1322.943z"/>
		<path style="fill:#AF5945;" d="M1222.663,1334.046c-0.364,0-0.675-0.279-0.708-0.649c-0.035-0.391,0.254-0.737,0.645-0.772
			c15.286-1.364,28.798-7.691,28.933-7.755c0.355-0.165,0.779-0.016,0.947,0.339s0.017,0.779-0.338,0.948
			c-0.137,0.065-13.868,6.498-29.415,7.886C1222.705,1334.044,1222.684,1334.046,1222.663,1334.046z"/>
		<path style="fill:#AF5945;" d="M1218.518,1345.536c-0.147,0-0.293-0.001-0.438-0.002c-0.393-0.004-0.708-0.326-0.703-0.719
			c0.005-0.39,0.322-0.704,0.712-0.704c0.002,0,0.005,0,0.008,0.001c10.084,0.099,25.53-3.9,25.684-3.941
			c0.383-0.094,0.769,0.128,0.869,0.508c0.1,0.38-0.127,0.769-0.507,0.869C1243.987,1341.588,1228.821,1345.536,1218.518,1345.536z"
			/>
	</g>
	<g id="_x32_">
		<path style="fill:#FDFFFE;" d="M819.019,761.238c-2.743,0-5.43,0.235-8.05,0.666c0.25-2.011,0.394-4.056,0.394-6.135
			c0-27.182-22.035-49.217-49.217-49.217c-17.136,0-32.219,8.762-41.033,22.045c-3.606-23.63-24.014-41.732-48.651-41.732
			c-27.182,0-49.217,22.035-49.217,49.217c0,4.964,0.742,9.754,2.109,14.271c-0.7-0.029-1.402-0.053-2.109-0.053
			c-27.182,0-49.217,22.035-49.217,49.217c0,27.182,22.035,49.217,49.217,49.217c10.612,0,20.432-3.37,28.47-9.083
			c10.911,22.835,34.219,38.613,61.215,38.613c28.88,0,53.527-18.062,63.303-43.499c8.468,14.871,24.451,24.906,42.787,24.906
			c27.182,0,49.217-22.035,49.217-49.217C868.236,783.273,846.201,761.238,819.019,761.238z"/>
		<path style="fill:#A2C3F2;" d="M1303.228,189.508c2.865,0.16,5.657,0.563,8.369,1.166c-0.144-2.115-0.175-4.259-0.053-6.43
			c1.588-28.389,25.889-50.115,54.278-48.527c17.897,1.001,33.138,11.034,41.568,25.422c5.146-24.468,27.519-42.182,53.25-40.743
			c28.389,1.588,50.115,25.889,48.527,54.278c-0.29,5.185-1.345,10.143-3.037,14.782c0.733,0.01,1.467,0.026,2.206,0.068
			c28.389,1.588,50.115,25.889,48.527,54.279c-1.588,28.389-25.889,50.115-54.278,48.527c-11.084-0.62-21.142-4.714-29.204-11.149
			c-12.73,23.212-37.994,38.328-66.189,36.751c-30.162-1.687-54.849-21.991-63.573-49.129
			c-9.713,15.036-26.992,24.583-46.143,23.512c-28.389-1.588-50.115-25.889-48.527-54.278
			C1250.538,209.647,1274.839,187.921,1303.228,189.508z"/>
		<path style="fill:#A2C3F2;" d="M2698.896,564.845c-2.309,0.129-4.56,0.453-6.746,0.94c0.116-1.705,0.141-3.433,0.043-5.184
			c-1.28-22.885-20.87-40.4-43.755-39.119c-14.427,0.807-26.714,8.894-33.509,20.493c-4.149-19.724-22.184-34.004-42.927-32.844
			c-22.885,1.28-40.399,20.87-39.119,43.755c0.234,4.18,1.084,8.177,2.448,11.916c-0.591,0.008-1.183,0.021-1.779,0.055
			c-22.885,1.28-40.399,20.87-39.119,43.755c1.28,22.885,20.87,40.399,43.755,39.119c8.935-0.5,17.043-3.8,23.542-8.988
			c10.262,18.712,30.628,30.898,53.357,29.626c24.315-1.36,44.215-17.728,51.248-39.605c7.83,12.121,21.759,19.817,37.197,18.954
			c22.885-1.28,40.399-20.87,39.119-43.755C2741.371,581.08,2721.781,563.565,2698.896,564.845z"/>
	</g>
	<path id="_x31_" style="fill:#30313C;" d="M2939.896,1879.646H149.436c-1.756,0-3.18-1.424-3.18-3.181s1.424-3.181,3.18-3.181
		h2790.459c1.756,0,3.18,1.424,3.18,3.181S2941.651,1879.646,2939.896,1879.646z"/>
</g>
</svg>
