<?xml version="1.0" encoding="utf-8"?>
<!-- Generator: Adobe Illustrator 27.5.0, SVG Export Plug-In . SVG Version: 6.00 Build 0)  -->
<svg version="1.1" xmlns="http://www.w3.org/2000/svg" xmlns:xlink="http://www.w3.org/1999/xlink" x="0px" y="0px"
	 viewBox="0 0 500 500" style="enable-background:new 0 0 500 500;" xml:space="preserve">
<g id="BACKGROUND">
	<polygon style="opacity:0.2;fill:#9BCCEB;" points="272.378,420.124 288.946,420.124 500,420.124 500,336.776 480.505,336.776 
		480.505,348.729 470.254,352.484 470.254,363.046 458.224,363.046 458.224,385.534 451.836,385.534 451.836,348.701 
		448.657,348.701 448.657,344.301 446.661,344.301 446.661,340.948 443.959,340.948 442.67,328.02 441.444,340.948 438.405,340.948 
		438.405,344.301 436.409,344.301 436.409,348.701 433.23,348.701 433.23,385.534 431.126,385.534 431.126,347.136 412.52,356.839 
		412.52,385.534 408.229,385.534 408.229,372.547 397.28,372.547 397.28,348.701 378.674,348.701 378.674,385.534 374.553,385.534 
		374.553,345.548 371.182,345.548 371.182,341.124 369.186,341.124 369.186,337.772 360.929,337.772 360.929,341.124 
		358.933,341.124 358.933,345.548 355.947,345.548 355.947,385.534 321.547,385.534 321.547,336.776 294.587,336.776 
		294.587,348.729 284.336,352.484 284.336,372.547 281.031,372.547 272.341,372.547 270.083,372.547 270.083,348.701 
		251.476,348.701 251.476,385.534 247.356,385.534 247.356,345.548 243.984,345.548 243.984,341.124 241.988,341.124 
		241.988,337.772 233.731,337.772 233.731,341.124 231.735,341.124 231.735,345.548 228.749,345.548 228.749,385.534 
		215.707,385.534 215.707,336.776 188.746,336.776 188.746,348.729 178.496,352.484 178.496,363.046 166.466,363.046 
		166.466,385.534 160.078,385.534 160.078,348.701 156.899,348.701 156.899,344.301 154.903,344.301 154.903,340.948 
		152.201,340.948 150.911,328.02 149.686,340.948 146.647,340.948 146.647,344.301 144.651,344.301 144.651,348.701 
		141.472,348.701 141.472,385.534 139.368,385.534 139.368,347.136 120.761,356.839 120.761,385.534 116.471,385.534 
		116.471,372.547 105.522,372.547 105.522,348.701 86.916,348.701 86.916,385.534 82.795,385.534 82.795,345.548 79.423,345.548 
		79.423,341.124 77.427,341.124 77.427,337.772 69.171,337.772 69.171,341.124 67.175,341.124 67.175,345.548 64.189,345.548 
		64.189,385.534 49.206,385.534 49.206,336.776 22.245,336.776 22.245,348.729 11.995,352.484 11.995,372.547 0,372.547 
		0.036,420.124 	"/>
	<path style="opacity:0.2;fill:#9BCCEB;" d="M81.931,48.795c1.377,0.326,2.821-0.229,3.739-1.306
		c2.196-2.576,8.185-8.743,13.404-6.326c6.531,3.026,8.439,11.001,12.992,8.921c4.554-2.079,6.779-4.635,10.382-1.061
		c3.603,3.574,3.202,1.034,7.467,2.489c4.265,1.455-9.917,0.833-26.413,1.119c-16.496,0.286-41.157,0.121-43.725,0.135
		c-9.409,0.051,1.839-4.834,6.004-3.217c4.165,1.617,7.89-4.297,11.191-3.42C79.312,46.75,80.14,48.371,81.931,48.795z"/>
	<path style="opacity:0.2;fill:#9BCCEB;" d="M375.579,83.116c2.108,0.71,4.418-0.345,5.966-2.466
		c3.703-5.073,13.711-17.191,21.572-12.133c9.837,6.33,11.928,22.393,19.248,18.411c7.32-3.982,11.068-9.014,16.285-1.704
		c5.216,7.31,4.872,2.203,11.353,5.292c6.481,3.089-15.535,1.265-41.255,1.166c-25.72-0.099-64.106-1.435-68.105-1.512
		c-14.659-0.281,3.397-9.614,9.705-6.204c6.308,3.41,12.761-8.292,17.805-6.398C371.726,78.91,372.837,82.193,375.579,83.116z"/>
</g>
<g id="OBJECTS">
	<path style="fill:#B7D8EB;" d="M32.972,425.151c0,0,6.861,1.111,9.349,1.669c1.887,0.423,7.073,0.499,10.355,0.625
		c0.621,0.024,1.024-0.64,0.721-1.183c-0.815-1.459-2.596-3.836-5.938-4.95c-5.008-1.669-5.806-2.505-5.806-2.505
		s16.758-32.321,19.133-37.809c0.829-1.916,2.468-9.423,4.25-18.381c1.632,5.225,3.422,9.736,5.299,12.509
		c0,0,7.261,33.227,15.992,43.115c0,0,1.223,5.327,2.403,6.743c0,0,3.81-1.472,7.247-3.122c1.744-0.837,7.035-4.016,9.808-5.776
		c0.525-0.333,0.48-1.109-0.078-1.383c-1.5-0.738-4.315-1.684-7.699-0.703c-5.07,1.47-5.736,0.833-5.736,0.833l-0.033,0.019
		c-0.358-0.888-4.798-18.118-7.946-33.341l-0.405-8.35c-0.568-1.338-1.775-5.459-2.446-7.805c-0.475-2.872-1.761-9.857-3.147-17.273
		c0.438-0.024,0.895-0.072,1.308-0.151l0.084,0.102l0.198-0.163c0.817-0.196,1.377-0.532,1.099-1.074
		c-0.605-1.178-1.597-2.876-2.094-4.012c1.044,0.697,2.02-0.251,1.586-0.6c-0.485-0.391-2.36-3.051-4.219-4.943
		c-0.013-0.068-0.025-0.135-0.038-0.202l0.646-0.3l-1.216-2.72c-0.367-1.942-0.7-3.7-0.98-5.176
		c1.566-0.387,2.197-0.654,2.197-0.654s-2.018-28.059-4.689-36.518c-1.678-5.315-4.541-9.001-7.061-11.4l0,0
		c0,0,0.079-0.573,0.211-1.421l0,0c0.023-0.146,0.047-0.302,0.073-0.463c0.002-0.014,0.004-0.027,0.007-0.041
		c0.026-0.163,0.054-0.332,0.083-0.507c0-0.002,0.001-0.003,0.001-0.005c0.05-0.298,0.104-0.612,0.161-0.932
		c0.781,0.602,1.395,0.963,1.89,1.145c0.148,0.054,0.286,0.093,0.414,0.118c0.129,0.025,0.249,0.036,0.361,0.034
		c0.842-0.009,1.262-0.699,1.857-1.306c0.148-0.151,0.283-0.304,0.412-0.459c0.034-0.041,0.068-0.082,0.101-0.124
		c0.105-0.132,0.205-0.264,0.299-0.398c0.018-0.026,0.038-0.051,0.055-0.077c0.108-0.16,0.208-0.321,0.3-0.483
		c0.018-0.032,0.035-0.063,0.052-0.095c0.078-0.141,0.15-0.282,0.216-0.424c0.013-0.028,0.027-0.056,0.04-0.084
		c0.155-0.342,0.278-0.686,0.376-1.028c0.005-0.017,0.01-0.035,0.015-0.052c0.822-2.965-0.338-5.734-0.338-5.734
		c-0.022,0.015-0.048,0.029-0.072,0.043c-0.035-0.165-0.069-0.331-0.1-0.501c-0.364-1.967,0.635-3.168-0.484-4.749
		c0.005-0.002,0.011-0.004,0.016-0.007c1.474-0.728,3.641-6.202,0.64-5.577c-3.332,0.693-6.495-0.137-10.416,0.66
		c-3.598,0.731-5.018,1.051-4.152,5.672c0.772,4.115-0.628,8.074,2.569,8.418c-0.03,0.124-0.058,0.246-0.089,0.371
		c-0.558,2.263-1.24,4.629-1.847,5.591c0,0,0.001,0.001,0.001,0.001c-4.951,2.958-9.941,7.95-8.862,15.451
		c-0.668,2.225-1.376,4.592-2.054,6.872c-0.009,0.029-0.017,0.058-0.026,0.087c-0.177,0.597-0.352,1.187-0.524,1.767
		c-0.001,0.002-0.001,0.005-0.002,0.007l0,0c-1.478,4.998-2.697,9.23-2.842,10.057c-0.215,1.229,2.643,9.084,5.257,15.901
		c0,0,0,0,0,0c0.007,0.017,0.013,0.034,0.02,0.051c0.136,0.354,0.271,0.705,0.405,1.052c0.003,0.008,0.006,0.015,0.009,0.022
		c0.138,0.359,0.276,0.713,0.411,1.062c0.003,0.007,0.005,0.013,0.008,0.02c0.048,0.124,0.096,0.247,0.144,0.37
		c-0.016,0.036-0.031,0.073-0.047,0.109c0,0,0,0.001-0.001,0.001l0,0c-1.741,4.07-3.093,9.488-1.756,15.175
		c2.534,10.775,0.547,31.731,0.547,31.731s-9.443,13.875-10.507,23.045c-1.064,9.17-3.125,17.598-3.125,17.598
		S32.805,423.315,32.972,425.151z M83.049,375.221c-0.206-1.102-0.401-2.177-0.58-3.216L83.049,375.221z"/>
	<g>
		<path style="fill:#E3B188;" d="M282.952,422.105c0,0,4.014,0.65,5.47,0.977c1.104,0.248,4.138,0.292,6.059,0.366
			c0.363,0.014,0.599-0.375,0.422-0.692c-0.477-0.854-1.519-2.245-3.474-2.896c-2.93-0.977-3.397-1.466-3.397-1.466
			s9.805-18.91,11.194-22.121c0.485-1.121,1.444-5.513,2.486-10.755c0.955,3.057,2.002,5.697,3.101,7.318
			c0,0,4.249,19.441,9.357,25.226c0,0,0.716,3.116,1.406,3.945c0,0,2.229-0.861,4.24-1.826c1.02-0.49,4.116-2.35,5.739-3.379
			c0.307-0.195,0.281-0.649-0.046-0.809c-0.877-0.432-2.525-0.985-4.504-0.411c-2.967,0.86-3.356,0.487-3.356,0.487l-0.02,0.011
			c-0.21-0.52-2.807-10.601-4.649-19.507l-0.237-4.885c-0.332-0.783-1.038-3.194-1.431-4.567c-0.278-1.68-1.03-5.767-1.841-10.106
			c0.257-0.014,0.524-0.043,0.766-0.088l0.049,0.06l0.116-0.095c0.478-0.115,0.806-0.311,0.643-0.628
			c-0.354-0.69-0.934-1.683-1.225-2.348c0.611,0.408,1.182-0.147,0.928-0.351c-0.284-0.229-1.381-1.785-2.468-2.892
			c-0.007-0.04-0.015-0.079-0.022-0.118l0.378-0.175l-0.712-1.591c-0.215-1.136-0.41-2.165-0.574-3.028
			c0.916-0.226,1.285-0.383,1.285-0.383s-1.181-16.417-2.743-21.366c-0.982-3.109-2.657-5.267-4.131-6.67v0
			c0,0,0.046-0.335,0.123-0.832l0,0c0.013-0.086,0.028-0.177,0.043-0.271c0.001-0.008,0.003-0.016,0.004-0.024
			c0.015-0.095,0.031-0.194,0.049-0.297c0-0.001,0-0.002,0-0.003c0.029-0.174,0.061-0.358,0.094-0.546
			c0.457,0.352,0.816,0.563,1.106,0.67c0.087,0.032,0.167,0.054,0.243,0.069c0.075,0.014,0.145,0.021,0.211,0.02
			c0.493-0.006,0.738-0.409,1.086-0.764c0.086-0.088,0.165-0.178,0.241-0.268c0.02-0.024,0.04-0.048,0.059-0.072
			c0.062-0.077,0.12-0.154,0.175-0.233c0.01-0.015,0.022-0.03,0.032-0.045c0.063-0.093,0.122-0.188,0.176-0.282
			c0.011-0.018,0.02-0.037,0.03-0.056c0.045-0.082,0.088-0.165,0.126-0.248c0.008-0.016,0.016-0.033,0.023-0.049
			c0.091-0.2,0.163-0.401,0.22-0.601c0.003-0.01,0.006-0.02,0.009-0.03c0.481-1.735-0.198-3.355-0.198-3.355
			c-0.013,0.009-0.028,0.017-0.042,0.025c-0.021-0.096-0.04-0.194-0.059-0.293c-0.213-1.151,0.372-1.853-0.283-2.779
			c0.003-0.001,0.007-0.003,0.009-0.004c0.862-0.426,2.131-3.628,0.374-3.263c-1.95,0.406-3.8-0.08-6.094,0.386
			c-2.105,0.427-2.936,0.615-2.429,3.318c0.452,2.408-0.368,4.724,1.503,4.925c-0.018,0.073-0.034,0.144-0.052,0.217
			c-0.326,1.324-0.726,2.708-1.081,3.271c0,0,0,0,0,0.001c-2.897,1.731-5.816,4.651-5.185,9.04
			c-0.391,1.302-0.805,2.686-1.202,4.021c-0.005,0.017-0.01,0.034-0.015,0.051c-0.104,0.349-0.206,0.694-0.306,1.034
			c0,0.001-0.001,0.003-0.001,0.004l0,0c-0.865,2.924-1.578,5.4-1.663,5.884c-0.126,0.719,1.546,5.315,3.076,9.303c0,0,0,0,0,0
			c0.004,0.01,0.008,0.02,0.011,0.03c0.079,0.207,0.158,0.412,0.237,0.615c0.002,0.004,0.003,0.009,0.005,0.013
			c0.081,0.21,0.161,0.417,0.24,0.621c0.001,0.004,0.003,0.008,0.004,0.012c0.028,0.073,0.056,0.145,0.084,0.217
			c-0.009,0.021-0.018,0.043-0.027,0.064c0,0,0,0.001,0,0.001h0c-1.019,2.381-1.81,5.552-1.028,8.879
			c1.482,6.305,0.32,18.565,0.32,18.565s-5.525,8.118-6.148,13.483c-0.623,5.366-1.828,10.296-1.828,10.296
			S282.854,421.031,282.952,422.105z M312.251,392.892c-0.121-0.645-0.234-1.274-0.339-1.882L312.251,392.892z"/>
		<path style="fill:#E3B188;" d="M287.255,335.423c-0.166-0.031-0.323,0.036-0.429,0.152l-1.072-0.199
			c0.074-0.621,0.015-1.23-0.161-1.797l1.034-0.365c0.124,0.116,0.303,0.164,0.475,0.104c0.245-0.087,0.374-0.356,0.287-0.601
			c-0.087-0.245-0.356-0.374-0.601-0.287c-0.16,0.056-0.262,0.192-0.295,0.346l-1.056,0.374c-0.238-0.553-0.591-1.049-1.032-1.46
			l0.734-0.859c0.165,0.038,0.345-0.009,0.463-0.147c0.169-0.198,0.146-0.495-0.052-0.664c-0.198-0.169-0.495-0.146-0.664,0.052
			c-0.11,0.129-0.131,0.298-0.083,0.448l-0.749,0.877c-0.465-0.351-1.007-0.61-1.606-0.752l0.211-1.133
			c0.162-0.05,0.294-0.181,0.327-0.359c0.048-0.256-0.121-0.502-0.377-0.549c-0.256-0.048-0.502,0.121-0.549,0.377
			c-0.031,0.166,0.036,0.323,0.152,0.429l-0.214,1.153c-0.608-0.078-1.205-0.028-1.763,0.135l-0.385-1.088
			c0.116-0.124,0.165-0.304,0.104-0.475c-0.087-0.245-0.356-0.374-0.601-0.287c-0.245,0.087-0.374,0.356-0.287,0.601
			c0.056,0.16,0.192,0.262,0.346,0.295l0.39,1.103c-0.553,0.226-1.055,0.562-1.471,0.989l-0.865-0.739
			c0.038-0.165-0.009-0.345-0.147-0.463c-0.198-0.169-0.495-0.146-0.664,0.052c-0.169,0.198-0.146,0.495,0.052,0.664
			c0.129,0.11,0.297,0.13,0.448,0.083l0.876,0.749c-0.363,0.461-0.634,1.001-0.789,1.6l-1.095-0.204
			c-0.05-0.162-0.181-0.294-0.359-0.327c-0.256-0.048-0.502,0.121-0.549,0.377c-0.048,0.256,0.121,0.502,0.377,0.549
			c0.166,0.031,0.323-0.036,0.429-0.152l1.107,0.206c-0.092,0.619-0.048,1.227,0.11,1.796l-1.017,0.36
			c-0.124-0.115-0.303-0.164-0.475-0.104c-0.245,0.087-0.374,0.356-0.287,0.601c0.087,0.245,0.356,0.374,0.601,0.287
			c0.159-0.056,0.262-0.192,0.295-0.346l1.028-0.363c0.226,0.57,0.566,1.088,1.004,1.516l-0.678,0.793
			c-0.165-0.038-0.345,0.009-0.463,0.147c-0.169,0.198-0.146,0.495,0.052,0.664c0.198,0.169,0.495,0.146,0.664-0.052
			c0.11-0.129,0.13-0.298,0.082-0.448l0.687-0.804c0.472,0.373,1.029,0.649,1.646,0.802l-0.188,1.01
			c-0.162,0.05-0.294,0.181-0.327,0.359c-0.047,0.256,0.121,0.502,0.377,0.549c0.256,0.048,0.502-0.121,0.549-0.377
			c0.031-0.166-0.036-0.323-0.152-0.429l0.191-1.026c0.632,0.088,1.253,0.036,1.83-0.136l0.341,0.963
			c-0.116,0.124-0.164,0.304-0.104,0.475c0.087,0.245,0.356,0.374,0.601,0.287c0.245-0.087,0.374-0.356,0.287-0.601
			c-0.056-0.16-0.192-0.262-0.346-0.295l-0.347-0.98c0.57-0.238,1.083-0.595,1.505-1.046l0.787,0.673
			c-0.038,0.165,0.009,0.345,0.147,0.463c0.198,0.169,0.495,0.146,0.664-0.052c0.169-0.198,0.146-0.495-0.052-0.664
			c-0.129-0.11-0.298-0.13-0.448-0.083l-0.805-0.688c0.36-0.477,0.625-1.034,0.765-1.651l1.048,0.195
			c0.05,0.162,0.181,0.294,0.359,0.327c0.256,0.048,0.502-0.121,0.549-0.377C287.679,335.716,287.51,335.47,287.255,335.423z
			 M282.399,334.567c-0.04,0.216-0.315,0.346-0.613,0.291s-0.508-0.275-0.468-0.491c0.04-0.216,0.315-0.346,0.613-0.29
			C282.23,334.132,282.439,334.352,282.399,334.567z M282.069,333.639c-0.702-0.13-1.194-0.647-1.099-1.155
			c0.094-0.507,0.739-0.813,1.441-0.683c0.701,0.13,1.194,0.647,1.099,1.155C283.415,333.464,282.77,333.77,282.069,333.639z
			 M284.535,334.657c-0.056,0.302-0.44,0.484-0.858,0.407c-0.418-0.078-0.711-0.386-0.655-0.688c0.056-0.302,0.44-0.484,0.858-0.407
			C284.298,334.047,284.591,334.355,284.535,334.657z"/>
	</g>
	<path style="fill:#B7D8EB;" d="M227.542,415.757c0,0-2.615-10.696-3.966-22.335c-1.35-11.639-13.336-29.248-13.336-29.248
		s-2.521-26.596,0.694-40.272c1.697-7.218-0.02-14.095-2.23-19.262c-0.02-0.046-0.039-0.093-0.059-0.139
		c0.061-0.156,0.121-0.312,0.192-0.495c0.172-0.443,0.346-0.893,0.521-1.348c0.004-0.01,0.007-0.019,0.011-0.028
		c0.17-0.44,0.341-0.886,0.514-1.335c0.008-0.022,0.016-0.043,0.025-0.065c3.318-8.653,6.945-18.622,6.672-20.181
		c-0.184-1.051-1.732-6.422-3.61-12.774c-0.218-0.736-0.44-1.485-0.665-2.242c-0.011-0.037-0.022-0.073-0.033-0.11
		c-0.86-2.894-1.758-5.897-2.607-8.722c1.37-9.521-4.963-15.856-11.246-19.611c-0.77-1.221-1.636-4.224-2.344-7.096
		c-0.039-0.159-0.075-0.313-0.113-0.471c4.058-0.436,2.281-5.461,3.26-10.684c1.1-5.864-0.703-6.271-5.269-7.198
		c-4.976-1.011-8.99,0.043-13.22-0.837c-3.81-0.793-1.058,6.153,0.832,7.087c-1.421,2.007-0.152,3.531-0.614,6.028
		c-0.04,0.215-0.726,2.306-0.749,2.417c-0.311,1.499-0.382,3.078-0.095,4.587c0.396,2.078,2.657,7.082,5.379,6.559
		c0.163-0.031,0.338-0.08,0.526-0.149c0.629-0.231,1.408-0.689,2.399-1.453c0.072,0.406,0.141,0.805,0.205,1.19
		c0.037,0.222,0.072,0.437,0.105,0.644c0.003,0.017,0.005,0.035,0.008,0.052c0.033,0.205,0.064,0.402,0.093,0.588
		c0.168,1.076,0.267,1.804,0.268,1.804c-3.197,3.044-6.831,7.723-8.961,14.468c-3.39,10.735-5.951,46.347-5.951,46.347
		s0.801,0.339,2.788,0.83c-0.355,1.873-0.778,4.105-1.244,6.569l-1.544,3.452l0.82,0.38c-0.016,0.085-0.032,0.171-0.049,0.257
		c-2.359,2.401-4.738,5.777-5.354,6.273c-0.551,0.444,0.689,1.647,2.013,0.762c-0.631,1.442-1.889,3.597-2.657,5.092
		c-0.353,0.688,0.358,1.115,1.395,1.363l0.251,0.207l0.106-0.129c0.524,0.1,1.104,0.161,1.661,0.192
		c-1.759,9.412-3.392,18.277-3.994,21.922c-0.852,2.977-2.384,8.208-3.104,9.906l-0.514,10.597
		c-3.996,19.32-9.631,41.188-10.085,42.315l-0.042-0.024c0,0-0.845,0.808-7.28-1.057c-4.294-1.245-7.868-0.044-9.771,0.892
		c-0.708,0.348-0.765,1.333-0.099,1.755c3.52,2.234,10.236,6.269,12.449,7.331c4.363,2.094,9.198,3.962,9.198,3.962
		c1.498-1.798,3.05-8.559,3.05-8.559c11.081-12.549,20.297-54.72,20.297-54.72c2.383-3.518,4.654-9.244,6.726-15.875
		c2.262,11.37,4.342,20.897,5.394,23.329c3.014,6.965,24.283,47.986,24.283,47.986s-1.013,1.061-7.369,3.18
		c-4.241,1.414-6.501,4.431-7.536,6.283c-0.385,0.688,0.127,1.531,0.915,1.501c4.166-0.16,10.747-0.256,13.142-0.793
		c3.157-0.708,11.865-2.119,11.865-2.119C230.103,422.203,227.542,415.757,227.542,415.757z M167.069,357.082
		c-0.228,1.319-0.474,2.682-0.736,4.082L167.069,357.082z"/>
	<g>
		<path style="fill:#E3985B;" d="M86.013,155.632c-0.367-0.068-0.712,0.079-0.946,0.336l-2.366-0.44
			c0.163-1.371,0.033-2.716-0.355-3.966l2.281-0.806c0.274,0.255,0.67,0.363,1.047,0.229c0.541-0.191,0.825-0.786,0.634-1.327
			c-0.191-0.542-0.786-0.825-1.327-0.634c-0.352,0.125-0.577,0.424-0.652,0.764l-2.331,0.824c-0.526-1.22-1.305-2.315-2.277-3.223
			l1.62-1.895c0.365,0.084,0.762-0.021,1.022-0.325c0.373-0.437,0.322-1.093-0.114-1.466c-0.437-0.373-1.093-0.322-1.466,0.115
			c-0.243,0.284-0.288,0.656-0.182,0.988l-1.654,1.935c-1.027-0.774-2.223-1.347-3.545-1.66l0.465-2.5
			c0.358-0.11,0.649-0.399,0.723-0.792c0.105-0.565-0.268-1.107-0.832-1.212s-1.107,0.268-1.212,0.832
			c-0.068,0.367,0.079,0.712,0.336,0.946l-0.473,2.544c-1.342-0.173-2.659-0.061-3.89,0.297l-0.849-2.401
			c0.255-0.274,0.363-0.67,0.229-1.048c-0.191-0.542-0.785-0.825-1.327-0.634c-0.541,0.191-0.825,0.785-0.634,1.327
			c0.125,0.352,0.425,0.578,0.765,0.652l0.861,2.435c-1.22,0.499-2.328,1.241-3.247,2.184l-1.908-1.631
			c0.083-0.365-0.021-0.762-0.325-1.022c-0.436-0.373-1.093-0.322-1.466,0.115c-0.373,0.436-0.322,1.093,0.115,1.466
			c0.284,0.243,0.656,0.288,0.988,0.182l1.933,1.652c-0.801,1.017-1.4,2.21-1.74,3.531l-2.417-0.449
			c-0.11-0.358-0.399-0.649-0.793-0.722c-0.565-0.105-1.107,0.268-1.212,0.832c-0.105,0.565,0.268,1.107,0.832,1.212
			c0.367,0.068,0.712-0.079,0.947-0.336l2.443,0.454c-0.203,1.365-0.107,2.708,0.242,3.964l-2.246,0.794
			c-0.274-0.255-0.67-0.363-1.047-0.229c-0.541,0.191-0.825,0.786-0.634,1.327c0.191,0.541,0.785,0.825,1.327,0.634
			c0.352-0.125,0.577-0.424,0.652-0.764l2.269-0.802c0.498,1.258,1.249,2.401,2.215,3.346l-1.496,1.751
			c-0.365-0.084-0.762,0.021-1.022,0.325c-0.373,0.436-0.322,1.093,0.115,1.466c0.437,0.373,1.093,0.322,1.466-0.115
			c0.243-0.284,0.288-0.657,0.182-0.988l1.516-1.774c1.042,0.823,2.271,1.433,3.632,1.77l-0.414,2.23
			c-0.358,0.11-0.649,0.399-0.722,0.793c-0.105,0.565,0.268,1.107,0.832,1.212c0.564,0.105,1.107-0.268,1.212-0.832
			c0.068-0.367-0.079-0.712-0.336-0.946l0.421-2.265c1.394,0.194,2.765,0.079,4.04-0.3l0.751,2.125
			c-0.255,0.275-0.363,0.67-0.23,1.048c0.191,0.542,0.786,0.825,1.327,0.634c0.541-0.191,0.825-0.785,0.634-1.327
			c-0.124-0.352-0.424-0.578-0.764-0.652l-0.765-2.164c1.258-0.524,2.39-1.313,3.322-2.308l1.737,1.486
			c-0.083,0.365,0.021,0.761,0.325,1.021c0.437,0.373,1.093,0.322,1.466-0.115c0.373-0.436,0.322-1.093-0.115-1.466
			c-0.284-0.243-0.657-0.288-0.988-0.182l-1.776-1.519c0.795-1.053,1.38-2.283,1.689-3.645l2.312,0.43
			c0.11,0.358,0.399,0.649,0.792,0.722c0.565,0.105,1.107-0.268,1.212-0.832C86.951,156.28,86.578,155.737,86.013,155.632z
			 M75.298,153.744c-0.089,0.477-0.694,0.764-1.353,0.641c-0.659-0.122-1.121-0.608-1.032-1.085
			c0.089-0.477,0.694-0.764,1.353-0.641C74.924,152.782,75.386,153.268,75.298,153.744z M74.568,151.696
			c-1.548-0.288-2.634-1.429-2.426-2.548c0.208-1.12,1.632-1.794,3.18-1.507c1.548,0.288,2.634,1.429,2.426,2.548
			C77.54,151.309,76.116,151.984,74.568,151.696z M80.012,153.942c-0.124,0.667-0.972,1.069-1.894,0.898
			c-0.922-0.171-1.57-0.851-1.446-1.518c0.124-0.667,0.972-1.069,1.894-0.898C79.489,152.595,80.136,153.275,80.012,153.942z"/>
		<g>
			<g>
				<path style="fill:#F7BCB2;" d="M60.946,421.394l12.222,1.023C73.168,422.417,67.046,428.586,60.946,421.394z"/>
				<path style="fill:#F7BCB2;" d="M153.106,421.403l10.641-6.098C163.747,415.305,159.635,424.496,153.106,421.403z"/>
				<path style="fill:#E3985B;" d="M91.794,179.158c0,0-14.696,48.32-15.395,52.316c-0.699,3.996,16.763,47.154,16.763,47.154
					l11.448-10.232L92.719,234.13l21.406-44.591C114.125,189.539,108.463,164.426,91.794,179.158z"/>
				<path style="opacity:0.22;fill:#4B6DA1;" d="M92.719,234.13l21.406-44.591c0,0-1.297-5.744-4.472-10.126
					c-2.374-2.753-5.625-4.598-9.939-3.345c-2.33,1.257-4.791,2.768-7.157,4.539c-0.418,0.905-1.735,3.758-3.522,7.66
					c-2.094,6.93-5.03,16.69-7.549,25.21c1.357,8.694,2.948,18.448,3.833,25.75c1.024,8.45,0.859,15.748,0.488,20.7
					c1.024,2.671,2.027,5.253,2.948,7.601l10.146,2.224c1.195,0.232,2.395,0.405,3.597,0.532l2.113-1.889L92.719,234.13z"/>
				<path style="fill:#292929;" d="M99.754,252.485c0,0,11.073,71.595,24.737,91.769c0,0,12.993,59.456,28.615,77.149l10.623-6.031
					c0.086,1.705-15.339-58.16-19.063-86.659c-0.875-6.695-13.995-75.571-13.995-75.571L99.754,252.485z"/>
				<path style="fill:#292929;" d="M94.859,252.044c0,0-15.418,18.922-10.499,39.846c4.533,19.281,0.979,56.778,0.979,56.778
					s-16.898,24.827-18.802,41.236c-1.904,16.409-5.591,31.49-5.591,31.49l12.222,1.023c0,0,29.987-57.834,34.236-67.654
					c4.249-9.82,20.384-101.696,20.384-101.696L94.859,252.044z"/>
				<path style="opacity:0.22;fill:#4B6DA1;" d="M132.849,264.608c-1.307-6.894-2.177-11.466-2.177-11.466l-2.886-0.061
					c0-0.002,0.003-0.015,0.003-0.015l-32.928-1.022c0,0-4.066,5-7.356,12.691c6.948,3.387,14.715,4.761,22.413,3.958
					C124.734,267.149,131.146,265.204,132.849,264.608z"/>
				<path style="fill:#4B6DA1;" d="M149.54,357.163l-6.024-33.396c0,0,3.779,13.558,5.228,16.972"/>
				<path style="fill:#E3985B;" d="M106.162,167.957c0,0,15.39,7.217,21.626,26.967c4.78,15.135,8.391,65.344,8.391,65.344
					s-5.704,2.421-23.422,4.268c-7.974,0.831-16.025-0.666-23.159-4.324h0c0,0,2.202-11.776,0.299-27.482
					c-1.187-9.792-2.29-24.741-3.749-34.878C83.909,182.304,96.242,172.778,106.162,167.957z"/>
				<path style="fill:#292320;" d="M60.946,421.394c0,0-3.611,9.088-3.312,12.374c0,0,12.277,1.989,16.728,2.987
					c3.377,0.758,12.655,0.892,18.529,1.118c1.111,0.043,1.833-1.146,1.291-2.116c-1.459-2.61-4.645-6.865-10.625-8.858
					c-8.962-2.987-10.39-4.483-10.39-4.483S65.453,425.748,60.946,421.394z"/>
				<path style="fill:#292320;" d="M153.106,421.403c0,0,2.189,9.531,4.3,12.066c0,0,6.817-2.633,12.968-5.586
					c3.12-1.498,12.587-7.186,17.551-10.336c0.939-0.596,0.859-1.984-0.139-2.475c-2.683-1.32-7.722-3.013-13.776-1.258
					c-9.073,2.63-10.264,1.491-10.264,1.491S159.289,422.428,153.106,421.403z"/>
				<path style="fill:#F7BCB2;" d="M107.323,151.054c0,0-2.975,15.43-5.321,19.148c0,0,9.471,8.45,13.152,4.323
					c0,0,1.512-11.056,3.004-14.414C118.158,160.111,113.994,149.416,107.323,151.054z"/>
				<path style="opacity:0.22;fill:#4B6DA1;" d="M105.307,160.199c3.058,4.522,7.103,9.88,10.224,11.783
					c0.342-2.193,0.885-5.417,1.502-8.086c-2.812-1.91-7.331-4.91-10.888-7.261C105.893,157.757,105.611,158.968,105.307,160.199z"
					/>
				<path style="fill:#F7BCB2;" d="M125.5,142.773c2.434,3.014,0.45,5.191,1.13,8.859c0.762,4.117,2.279,7.523,0.073,8.183
					c-2.206,0.66-0.759,0.295-0.759,0.295s-2.04,9.516-3.726,10.093c-1.686,0.577-7.557-3.37-9.626-5.206
					c-2.069-1.835-4.722-4.306-5.148-7.203c-0.756-5.147-1.064-12.292,0.854-14.761C110.217,140.564,121.818,138.214,125.5,142.773z
					"/>
				<path style="fill:#292929;" d="M110.08,150.042c0,0,3.855-2.216,3.379-7.448c0,0,9.696,1.831,12.333,0.527
					c2.637-1.304,6.516-11.097,1.145-9.979c-5.963,1.241-11.622-0.244-18.638,1.181c-6.438,1.308-8.98,1.881-7.429,10.148
					c1.551,8.268-1.808,16.193,7.094,14.99"/>
				<path style="fill:#F7BCB2;" d="M110.252,150.483c0,0-1.719-4.469-4.844-1.761c-3.125,2.708,1.273,10.847,5.252,9.547
					C112.514,157.663,110.252,150.483,110.252,150.483z"/>
				<path style="fill:#4B6DA1;" d="M115.432,153.515c0,0,8.973,0.645,11.505-1.065c0,0,3.891,9.269-2.733,16.027
					c-2.272,2.318-3.113,5.307-12.922-4.281L115.432,153.515z"/>
				<path style="fill:none;stroke:#4B6DA1;stroke-miterlimit:10;" d="M109.542,148.618c0,0,3.356,3.852,6.426,5.637"/>
				<path style="fill:none;stroke:#4B6DA1;stroke-miterlimit:10;" d="M107.353,157.434c0,0,1.131,3.419,4.603,6.756"/>
			</g>
			<g>
				<path style="fill:#F7BCB2;" d="M132.347,268.917c0,0-3.352,2.669,0.217,5.291c3.955,2.905,8.983,10.221,10.075,11.1
					c1.092,0.88-2.81,3.886-5.015-2.178c0,0,1.064,0.104,1.81,2.33c0.642,1.918,2.851,5.645,4.113,8.102
					c1.262,2.457-7.097,2.564-8.217,2.155c-0.889-0.324-5.906-3.832-7.814-7.675c-1.908-3.843-6.151-14.378-6.151-14.378
					L132.347,268.917z"/>
				<line style="fill:none;stroke:#292929;stroke-miterlimit:10;" x1="137.474" y1="282.676" x2="139.798" y2="286.381"/>
				<polyline style="fill:none;stroke:#292929;stroke-miterlimit:10;" points="136.636,287.988 138.778,292.076 141.579,295.487 
									"/>
				<polyline style="fill:none;stroke:#292929;stroke-miterlimit:10;" points="133.339,288.403 135.427,292.213 138.378,295.879 
									"/>
				<line style="fill:none;stroke:#292929;stroke-miterlimit:10;" x1="130.288" y1="289.676" x2="132.503" y2="293.788"/>
			</g>
			<path style="fill:#E3985B;" d="M110.45,187.07l7.204,47.07l18.525,41.426l-13.326,6.18l-22.206-45.289l-6.681-46.953
				c-0.639-4.493,2.435-8.672,6.915-9.398l0,0C105.451,179.366,109.749,182.493,110.45,187.07z"/>
			<polyline style="fill:none;stroke:#292929;stroke-miterlimit:10;" points="94.57,193.758 100.646,236.458 114.125,263.208 			"/>
			<polyline style="fill:none;stroke:#292929;stroke-miterlimit:10;" points="113.329,205.139 117.654,234.141 128.926,260.268 			
				"/>
			<line style="fill:none;stroke:#292929;stroke-miterlimit:10;" x1="115.03" y1="321.764" x2="121.365" y2="284.529"/>
			<path style="fill:#292929;" d="M121.871,151.207c-0.068,0.556,0.178,1.044,0.549,1.089c0.371,0.045,0.726-0.369,0.794-0.925
				c0.068-0.556-0.178-1.044-0.549-1.089C122.294,150.237,121.938,150.651,121.871,151.207z"/>
			<path style="fill:none;stroke:#292929;stroke-miterlimit:10;" d="M106.57,151.436c0,0,3.441-1.366,2.971,3.596"/>
			<path style="opacity:0.22;fill:#4B6DA1;" d="M113.636,158.137l-2.354,6.059c9.809,9.588,10.65,6.599,12.922,4.281
				c2.357-2.405,3.378-5.126,3.722-7.635C124.495,162.926,116.804,159.653,113.636,158.137z"/>
			<path style="fill:#4B6DA1;" d="M163.73,415.372l-0.02,0.012C163.723,415.406,163.732,415.41,163.73,415.372z"/>
		</g>
	</g>
	<path style="fill:#B7D8EB;" d="M335.059,424.533c0,0,8.708,1.41,11.865,2.119c2.395,0.537,8.976,0.633,13.142,0.793
		c0.788,0.03,1.3-0.813,0.915-1.501c-1.035-1.852-3.295-4.869-7.536-6.283c-6.356-2.119-7.369-3.18-7.369-3.18
		s21.269-41.021,24.283-47.986c1.052-2.432,3.132-11.959,5.394-23.329c2.071,6.632,4.343,12.357,6.726,15.875
		c0,0,9.216,42.171,20.296,54.72c0,0,1.552,6.76,3.05,8.559c0,0,4.835-1.868,9.198-3.962c2.213-1.062,8.928-5.097,12.448-7.331
		c0.666-0.423,0.609-1.407-0.099-1.755c-1.903-0.937-5.477-2.137-9.771-0.892c-6.435,1.865-7.28,1.057-7.28,1.057l-0.042,0.024
		c-0.454-1.127-6.089-22.995-10.085-42.315l-0.514-10.597c-0.721-1.698-2.252-6.929-3.104-9.906
		c-0.602-3.645-2.235-12.51-3.994-21.922c0.556-0.031,1.136-0.092,1.661-0.192l0.106,0.129l0.251-0.207
		c1.037-0.249,1.748-0.676,1.395-1.363c-0.768-1.496-2.027-3.65-2.657-5.092c1.325,0.885,2.564-0.319,2.013-0.762
		c-0.616-0.496-2.995-3.872-5.354-6.273c-0.016-0.086-0.032-0.171-0.048-0.257l0.82-0.38l-1.544-3.452
		c-0.466-2.465-0.889-4.696-1.244-6.569c1.987-0.491,2.788-0.83,2.788-0.83s-2.561-35.612-5.951-46.347
		c-2.13-6.745-5.764-11.424-8.961-14.468c0,0,0,0,0,0c0,0,0.1-0.727,0.267-1.804l0,0c0.029-0.186,0.06-0.383,0.093-0.588
		c0.003-0.017,0.005-0.035,0.008-0.052c0.033-0.207,0.068-0.422,0.105-0.644c0-0.002,0.001-0.004,0.001-0.007
		c0.063-0.378,0.132-0.777,0.204-1.183c0.991,0.763,1.77,1.222,2.399,1.453c0.188,0.069,0.363,0.118,0.526,0.149
		c0.163,0.031,0.315,0.045,0.458,0.044c1.069-0.012,1.601-0.887,2.357-1.658c0.187-0.191,0.359-0.386,0.523-0.582
		c0.044-0.052,0.086-0.104,0.128-0.157c0.134-0.167,0.26-0.335,0.379-0.505c0.023-0.033,0.048-0.065,0.07-0.098
		c0.138-0.203,0.264-0.407,0.381-0.613c0.023-0.04,0.044-0.08,0.066-0.12c0.099-0.179,0.19-0.358,0.274-0.538
		c0.017-0.036,0.034-0.071,0.05-0.107c0.197-0.435,0.353-0.871,0.477-1.304c0.006-0.022,0.013-0.044,0.019-0.066
		c1.043-3.763-0.429-7.277-0.429-7.277c-0.028,0.019-0.061,0.036-0.091,0.055c-0.044-0.209-0.087-0.42-0.127-0.635
		c-0.462-2.496,0.807-4.02-0.614-6.028c0.006-0.003,0.014-0.006,0.02-0.009c1.87-0.925,4.622-7.871,0.812-7.078
		c-4.23,0.88-8.244-0.173-13.22,0.837c-4.566,0.927-6.369,1.334-5.269,7.198c0.98,5.222-0.798,10.248,3.26,10.684
		c-0.038,0.158-0.074,0.312-0.113,0.471c-0.708,2.872-1.574,5.875-2.345,7.096c0,0,0.001,0.001,0.001,0.001
		c-6.284,3.755-12.617,10.089-11.247,19.61c-0.848,2.824-1.747,5.828-2.607,8.722c-0.011,0.037-0.022,0.073-0.033,0.11
		c-0.225,0.757-0.447,1.506-0.664,2.242c-0.001,0.003-0.002,0.006-0.003,0.009l0,0c-1.875,6.343-3.423,11.714-3.607,12.765
		c-0.273,1.559,3.354,11.529,6.672,20.181c0,0,0,0,0,0c0.008,0.022,0.017,0.043,0.025,0.065c0.172,0.449,0.344,0.894,0.513,1.335
		c0.004,0.01,0.007,0.019,0.011,0.028c0.176,0.455,0.35,0.905,0.521,1.348c0.003,0.009,0.007,0.017,0.01,0.025
		c0.061,0.158,0.122,0.314,0.182,0.47c-0.02,0.046-0.039,0.093-0.059,0.139c0,0,0,0.001-0.001,0.002l0,0
		c-2.21,5.165-3.926,12.042-2.229,19.26c3.215,13.676,0.694,40.272,0.694,40.272s-11.985,17.609-13.336,29.248
		c-1.35,11.639-3.966,22.335-3.966,22.335S334.848,422.203,335.059,424.533z M398.617,361.164c-0.262-1.399-0.508-2.763-0.736-4.082
		L398.617,361.164z"/>
	<g>
		<g>
			<g>
				<g>
					<path style="fill:#292929;" d="M297.261,277.634H186.014c-3.919,0-7.096-3.177-7.096-7.096V40.024
						c0-3.919,3.177-7.096,7.096-7.096h111.248c3.919,0,7.096,3.177,7.096,7.096v230.513
						C304.358,274.456,301.181,277.634,297.261,277.634z"/>
					<path style="fill:#FFFFFF;" d="M292.818,37.067h-34.913c-2.625,0-5.126,1.427-6.298,3.84c-1.71,3.521-5.249,5.94-9.34,5.94
						c-4.092,0-7.63-2.419-9.34-5.94c-1.172-2.413-3.673-3.84-6.298-3.84h-36.172c-4.24,0-7.677,3.531-7.677,7.886V252.28
						c0,4.356,3.437,7.886,7.677,7.886h102.361c4.24,0,7.677-3.531,7.677-7.886V44.953
						C300.495,40.598,297.058,37.067,292.818,37.067z"/>
					<g>
						<path style="fill:#AED7E3;" d="M188.595,47.347h5.546c0.303,0,0.55-0.247,0.55-0.55s-0.247-0.55-0.55-0.55h-5.546
							c-0.303,0-0.55,0.247-0.55,0.55S188.291,47.347,188.595,47.347z"/>
						<path style="fill:#AED7E3;" d="M188.595,50.046h4.008c0.303,0,0.55-0.247,0.55-0.55s-0.247-0.55-0.55-0.55h-4.008
							c-0.303,0-0.55,0.247-0.55,0.55S188.291,50.046,188.595,50.046z"/>
						<path style="fill:#AED7E3;" d="M194.141,51.577h-5.546c-0.303,0-0.55,0.247-0.55,0.55s0.247,0.55,0.55,0.55h5.546
							c0.303,0,0.55-0.247,0.55-0.55S194.444,51.577,194.141,51.577z"/>
					</g>
					<path style="fill:#FFFFFF;" d="M257.766,271.623h-31.644c-1.55,0-2.807-1.257-2.807-2.807v-1.429
						c0-1.55,1.257-2.807,2.807-2.807h31.644c1.55,0,2.807,1.257,2.807,2.807v1.429
						C260.573,270.366,259.317,271.623,257.766,271.623z"/>
					<g style="opacity:0.12;">
						<path style="fill:#6590CF;" d="M186.825,39.311h36.172c2.625,0,5.126,1.427,6.298,3.84c1.71,3.521,5.248,5.94,9.34,5.94
							c2.734,0,5.206-1.096,7.066-2.864c-1.078,0.387-2.227,0.62-3.434,0.62c-4.092,0-7.63-2.419-9.34-5.94
							c-1.172-2.413-3.673-3.84-6.298-3.84h-36.172c-2.219,0-4.212,0.973-5.614,2.519C185.477,39.412,186.139,39.311,186.825,39.311
							z"/>
						<path style="fill:#6590CF;" d="M292.818,37.067h-34.913c-2.076,0-4.063,0.903-5.387,2.47c0.57-0.142,1.158-0.226,1.756-0.226
							h34.913c4.24,0,7.677,3.531,7.677,7.886v207.327c0,2.076-0.787,3.959-2.064,5.367c3.278-0.899,5.695-3.961,5.695-7.611V44.953
							C300.495,40.598,297.058,37.067,292.818,37.067z"/>
					</g>
				</g>
				<g>
					
						<ellipse transform="matrix(0.9217 -0.388 0.388 0.9217 -37.886 104.3987)" style="opacity:0.14;fill:#9BCCEB;" cx="239.588" cy="146.02" rx="22.539" ry="22.539"/>
					
						<ellipse transform="matrix(0.7071 -0.7071 0.7071 0.7071 -33.0777 212.1825)" style="opacity:0.14;fill:#9BCCEB;" cx="239.588" cy="146.02" rx="33.247" ry="33.247"/>
					
						<ellipse transform="matrix(0.7071 -0.7071 0.7071 0.7071 -33.0777 212.1825)" style="opacity:0.14;fill:#9BCCEB;" cx="239.588" cy="146.02" rx="42.02" ry="42.02"/>
					<g>
						<path style="fill:#9BCCEB;" d="M240.226,129.075c-0.215-0.01-1.06-0.01-1.275,0c-6.653,0.313-12.144,5.742-12.529,12.391
							c-0.249,4.285,1.827,7.038,4.516,10.722c1.16,1.589,5.93,6.887,7.038,7.995c0.459,0.459,1.041,0.716,1.613,0.742
							c0.571-0.026,1.153-0.283,1.613-0.742c1.107-1.108,5.878-6.406,7.038-7.995c2.69-3.684,4.765-6.437,4.516-10.722
							C252.369,134.818,246.878,129.389,240.226,129.075z M239.588,147.708c-3.014,0-5.458-2.443-5.458-5.458
							c0-3.014,2.443-5.458,5.458-5.458c3.014,0,5.458,2.443,5.458,5.458C245.046,145.264,242.602,147.708,239.588,147.708z"/>
						<path style="opacity:0.34;fill:#9BCCEB;" d="M243.666,157.775c5.266,0.482,9.072,1.873,9.072,3.514
							c0,2.041-5.888,3.695-13.15,3.695c-7.263,0-13.15-1.654-13.15-3.695c0-1.614,3.68-2.986,8.811-3.489"/>
					</g>
				</g>
				<g>
					<path style="fill:#E3985B;" d="M230.942,82.01c-0.209-0.039-0.406,0.045-0.539,0.191l-1.347-0.25
						c0.093-0.781,0.019-1.546-0.202-2.258l1.299-0.459c0.156,0.145,0.381,0.206,0.596,0.131c0.308-0.109,0.47-0.447,0.361-0.756
						c-0.109-0.308-0.447-0.47-0.756-0.361c-0.2,0.071-0.329,0.242-0.371,0.435l-1.327,0.469c-0.299-0.695-0.743-1.318-1.297-1.835
						l0.923-1.079c0.208,0.048,0.434-0.012,0.582-0.185c0.212-0.249,0.183-0.622-0.065-0.835c-0.249-0.212-0.622-0.183-0.835,0.065
						c-0.138,0.162-0.164,0.374-0.104,0.563l-0.942,1.102c-0.585-0.44-1.266-0.767-2.019-0.945l0.264-1.424
						c0.204-0.063,0.37-0.227,0.411-0.451c0.06-0.322-0.153-0.631-0.474-0.69c-0.322-0.06-0.631,0.152-0.69,0.474
						c-0.039,0.209,0.045,0.405,0.191,0.539l-0.269,1.449c-0.764-0.099-1.514-0.035-2.215,0.169l-0.483-1.367
						c0.145-0.156,0.207-0.382,0.131-0.597c-0.109-0.308-0.447-0.47-0.755-0.361c-0.308,0.109-0.47,0.447-0.361,0.756
						c0.071,0.201,0.242,0.329,0.435,0.371l0.49,1.386c-0.695,0.285-1.325,0.707-1.849,1.243l-1.087-0.929
						c0.048-0.208-0.012-0.434-0.185-0.582c-0.249-0.213-0.622-0.183-0.835,0.065c-0.212,0.249-0.183,0.622,0.065,0.835
						c0.162,0.138,0.374,0.164,0.563,0.104l1.101,0.941c-0.456,0.579-0.797,1.258-0.991,2.011l-1.377-0.256
						c-0.063-0.204-0.227-0.37-0.451-0.411c-0.321-0.06-0.631,0.152-0.69,0.474c-0.06,0.322,0.153,0.631,0.474,0.69
						c0.209,0.039,0.406-0.045,0.539-0.191l1.391,0.258c-0.115,0.777-0.061,1.542,0.138,2.257l-1.279,0.452
						c-0.156-0.145-0.381-0.206-0.596-0.13c-0.308,0.109-0.47,0.447-0.361,0.756c0.109,0.308,0.447,0.47,0.756,0.361
						c0.2-0.071,0.329-0.242,0.371-0.435l1.292-0.457c0.284,0.716,0.711,1.367,1.261,1.905l-0.852,0.997
						c-0.208-0.048-0.434,0.012-0.582,0.185c-0.213,0.248-0.183,0.622,0.065,0.835c0.249,0.213,0.622,0.183,0.835-0.065
						c0.138-0.162,0.164-0.374,0.104-0.563l0.864-1.01c0.593,0.469,1.293,0.816,2.068,1.008l-0.236,1.27
						c-0.204,0.063-0.37,0.227-0.411,0.451c-0.06,0.321,0.152,0.63,0.474,0.69c0.322,0.06,0.631-0.153,0.69-0.474
						c0.039-0.209-0.045-0.405-0.191-0.539l0.24-1.29c0.794,0.11,1.574,0.045,2.3-0.171l0.428,1.21
						c-0.145,0.156-0.207,0.382-0.131,0.597c0.109,0.308,0.447,0.47,0.756,0.361c0.308-0.109,0.47-0.447,0.361-0.756
						c-0.071-0.201-0.242-0.329-0.435-0.371l-0.436-1.232c0.717-0.299,1.361-0.748,1.892-1.314l0.989,0.846
						c-0.048,0.208,0.012,0.434,0.185,0.582c0.248,0.213,0.622,0.183,0.835-0.065c0.212-0.248,0.183-0.622-0.065-0.835
						c-0.162-0.138-0.374-0.164-0.563-0.104l-1.012-0.865c0.453-0.599,0.786-1.3,0.962-2.076l1.317,0.245
						c0.063,0.204,0.227,0.37,0.451,0.411c0.322,0.06,0.631-0.152,0.69-0.474C231.475,82.379,231.263,82.07,230.942,82.01z
						 M224.84,80.935c-0.05,0.271-0.395,0.435-0.77,0.365c-0.375-0.07-0.638-0.346-0.588-0.618c0.05-0.271,0.395-0.435,0.771-0.365
						C224.627,80.388,224.89,80.664,224.84,80.935z M224.424,79.769c-0.882-0.164-1.5-0.814-1.382-1.451
						c0.118-0.638,0.929-1.022,1.811-0.858c0.882,0.164,1.5,0.814,1.382,1.451C226.116,79.549,225.305,79.933,224.424,79.769z
						 M227.524,81.048c-0.071,0.38-0.553,0.609-1.079,0.511c-0.525-0.098-0.894-0.485-0.823-0.865
						c0.071-0.38,0.554-0.609,1.079-0.511C227.226,80.281,227.595,80.668,227.524,81.048z"/>
					<g>
						<path style="fill:#E3985B;" d="M224.389,65.468c-0.257-0.012-1.268-0.012-1.526,0c-7.957,0.375-14.525,6.868-14.986,14.821
							c-0.297,5.126,2.185,8.419,5.402,12.825c1.387,1.9,7.093,8.238,8.418,9.563c0.549,0.549,1.246,0.856,1.929,0.887
							c0.683-0.031,1.38-0.338,1.929-0.887c1.325-1.325,7.031-7.662,8.418-9.563c3.217-4.406,5.699-7.699,5.402-12.825
							C238.914,72.336,232.346,65.843,224.389,65.468z M223.627,91.804c-5.842,0-10.578-4.736-10.578-10.578
							c0-5.842,4.736-10.578,10.578-10.578c5.842,0,10.578,4.736,10.578,10.578C234.205,87.068,229.469,91.804,223.627,91.804z"/>
						<path style="opacity:0.34;fill:#E3985B;" d="M228.504,99.796c6.299,0.577,10.851,2.241,10.851,4.203
							c0,2.441-7.042,4.42-15.729,4.42c-8.687,0-15.729-1.979-15.729-4.42c0-1.93,4.402-3.571,10.539-4.174"/>
					</g>
				</g>
				<text transform="matrix(1 0 0 1 222.4551 207.8923)" style="fill:#E3985B; font-family:'CourierPrime'; font-size:8.3699px;">Warning</text>
				<g>
					<rect x="202.759" y="216.044" style="opacity:0.14;fill:#9BCCEB;" width="75.196" height="4.75"/>
					<rect x="202.759" y="226.294" style="opacity:0.14;fill:#9BCCEB;" width="75.196" height="4.75"/>
					<rect x="202.759" y="236.226" style="opacity:0.14;fill:#9BCCEB;" width="75.196" height="4.75"/>
				</g>
			</g>
		</g>
		<path style="fill:#FFFFFF;" d="M244.945,39.311c0,1.479-1.199,2.679-2.678,2.679c-1.479,0-2.679-1.199-2.679-2.679
			c0-1.479,1.199-2.678,2.679-2.678C243.746,36.633,244.945,37.832,244.945,39.311z"/>
		<g>
			<path style="fill:#AED7E3;" d="M290.313,46.926c0,0.403-0.327,0.73-0.73,0.73c-0.403,0-0.73-0.327-0.73-0.73
				c0-0.403,0.327-0.73,0.73-0.73C289.986,46.196,290.313,46.523,290.313,46.926z"/>
			<circle style="fill:#AED7E3;" cx="289.583" cy="50.046" r="0.73"/>
			<circle style="fill:#AED7E3;" cx="289.583" cy="53.166" r="0.73"/>
		</g>
	</g>
	<g>
		<defs>
			<rect id="SVGID_1_" x="215.906" y="5.64" width="284.094" height="494.36"/>
		</defs>
		<clipPath id="SVGID_00000137133946624851232300000008184856742763867064_">
			<use xlink:href="#SVGID_1_"  style="overflow:visible;"/>
		</clipPath>
		<g style="clip-path:url(#SVGID_00000137133946624851232300000008184856742763867064_);">
			<g>
				<path style="fill:#F7BCB2;" d="M399.2,209.437c0,0-34.742,9.476-50.592,8.676c0,0-1.741,8.39-0.177,11.195
					c0,0,20.896,8.459,47.796,5.911L399.2,209.437z"/>
				<path style="fill:#F7BCB2;" d="M348.608,218.113c0,0-12.468-2.265-18.365-3.512c-5.898-1.247-13.643,10.9-18.186,12.212
					s3.323,6.364,11.658-1.732l9.087,1.459c0,0-0.797,6.686,3.214,8.111c4.011,1.426,14.122-4.718,14.122-4.718L348.608,218.113z"/>
				<path style="fill:none;stroke:#292929;stroke-width:2;stroke-miterlimit:10;" d="M323.714,225.081c0,0,3.433-2.393,5.634-4.065"
					/>
				<polyline style="fill:none;stroke:#292929;stroke-width:2;stroke-linejoin:round;stroke-miterlimit:10;" points="
					332.801,226.54 339.547,227.966 336.945,232.075 				"/>
			</g>
			<g>
				<g>
					<path style="fill:#F7BCB2;" d="M289.58,236.052c0,0,1.855-1.873,4.717-0.901c2.862,0.972,2.221,3.068,2.221,3.068
						s-0.336,3.578-4.245,3.007C290.171,240.918,289.58,236.052,289.58,236.052z"/>
					<path style="fill:#F7BCB2;" d="M295.762,238.595c0,0,1.606-2.386,4.246-1.489c2.639,0.897,2.049,2.829,2.049,2.829
						s-0.309,3.3-3.915,2.773C296.203,242.425,295.762,238.595,295.762,238.595z"/>
					<path style="fill:#F7BCB2;" d="M300.927,239.77c0,0,2.136-1.926,4.48-0.417c2.344,1.509,1.303,3.241,1.303,3.241
						s-1.099,3.127-4.47,1.743C300.427,243.593,300.927,239.77,300.927,239.77z"/>
					<path style="fill:#F7BCB2;" d="M306.557,240.114c0,0,1.812-1.615,3.783-0.331c1.971,1.285,1.084,2.742,1.084,2.742
						s-0.943,2.634-3.781,1.449C306.116,243.338,306.557,240.114,306.557,240.114z"/>
				</g>
				<polygon style="fill:#F7BCB2;" points="323.79,251.063 343.304,260.915 321.156,265.91 313.663,263.81 				"/>
				<g>
					<path style="fill:#292929;" d="M334.8,248.941l-47.281-13.494c-0.415-0.118-0.862-0.051-1.223,0.185l-19.999,8.28
						c-0.36,0.235-0.568,0.644-0.546,1.073l0,0c0.058,1.156,0.845,2.147,1.958,2.464l46.365,13.233
						c0.416,0.119,0.864,0.051,1.226-0.186l19.202-7.759c0.853-0.557,1.346-1.526,1.295-2.543l0,0
						C335.767,249.606,335.366,249.102,334.8,248.941z"/>
					<path style="fill:#FFFFFF;" d="M334.964,249.722l-19.974,8.263c-0.25,0.163-0.558,0.21-0.845,0.128l-47.798-13.642
						c-0.247-0.071-0.297-0.399-0.082-0.539l20.424-8.557c0.112-0.073,0.25-0.094,0.379-0.057l47.78,13.637
						C335.199,249.055,335.27,249.522,334.964,249.722z"/>
					<path style="fill:#6590CF;" d="M331.757,249.727l-17.158,6.499c-0.084,0.055-0.186,0.071-0.28,0.045l-44.381-12.551
						c-0.279-0.079-0.328-0.457-0.079-0.621l17.158-6.499c0.084-0.055,0.186-0.071,0.28-0.045l44.381,12.551
						C331.956,249.185,332.005,249.563,331.757,249.727z"/>
					<g style="opacity:0.21;">
						<path style="fill:#FFFFFF;" d="M314.727,244.29l-7.265-2.024l2.381,12.747l4.476,1.235c0.094,0.027,0.196,0.01,0.28-0.045
							l2.198-0.833L314.727,244.29z"/>
						<polygon style="fill:#FFFFFF;" points="292.745,250.177 304.343,253.457 301.962,240.71 290.363,237.422 						"/>
					</g>
					<path style="opacity:0.32;fill:#6590CF;" d="M269.938,243.72l0.478,0.135l16.657-6.31c0.084-0.055,0.186-0.072,0.28-0.045
						l43.903,12.416l0.501-0.19c0.248-0.163,0.2-0.541-0.079-0.62l-44.381-12.551c-0.094-0.027-0.196-0.01-0.28,0.045l-17.158,6.5
						C269.61,243.262,269.658,243.641,269.938,243.72z"/>
				</g>
				<path style="fill:#F7BCB2;" d="M325.341,255.778c0,0-9.499-7.121-19.447-1.005l-5.68-2.719c0,0-0.052-10.718-5.878-12.164
					c-4.111-1.02-0.128,11.074,0.399,16.003c0,0,12.327,6.961,17.799,9.462C319.566,268.567,325.834,265.964,325.341,255.778z"/>
			</g>
			<path style="fill:#7D433A;" d="M438.781,83.178c9.308,1.426,15.718,20.189,25.088,47.617
				c11.207,32.802,21.375,62.564,13.367,88.084c-7.099,22.622-25.351,31.932-40.343,29.156c-13.21-2.446-27.07-14.864-34.039-34.289
				C384.794,163.411,418.014,79.995,438.781,83.178z"/>
			<ellipse style="opacity:0.33;fill:#947FAD;" cx="442.832" cy="710.327" rx="78.111" ry="12.042"/>
			<path style="fill:#E3985B;" d="M426.446,675.679c0,0,10.314,32.702,5.283,41.003s-28.677,1.761-28.677,1.761
				s-46.034-2.264-48.55-4.025c-2.516-1.761,2.516-9.811,20.627-18.112c18.112-8.301,34.211-20.627,34.211-20.627H426.446z"/>
			<path style="fill:#E3985B;" d="M483.8,664.61c0,0,0,10.314-3.773,13.081c-3.357,2.462-18.463,14.682-26.361,25.32
				c-1.282,1.727-0.195,4.189,1.941,4.44c6.427,0.755,18.087,1.849,23.917,0.678c7.062-1.419,20.879,3.773,33.96-1.509
				c0,0-1.761-19.37-8.05-41.003L483.8,664.61z"/>
			<path style="fill:#F7BCB2;" d="M379.28,297.719c0,0,2.669,61.519,3.549,73.593c0.881,12.075-2.641,23.646-3.144,49.808
				c-0.503,26.162,7.091,63.11,2.991,73.943c-3.596,9.502-3.987,19.713,4.063,35.092l22.602,145.524c0,0,5.031,8.553,17.106,0
				c0,0,13.584-75.969,11.068-103.137c-2.516-27.168-8.553-39.745-11.068-48.801c-2.516-9.056,0-26.162,0-27.671
				c0-1.509,11.379-38.739,11.379-38.739s14.783,41.255,15.286,49.305c0.503,8.05-3.019,14.464,10.062,27.86
				c23.227,74.134,22.623,72.743,20.627,130.116c0,0,7.547,7.044,21.634,1.006c0,0,2.138-97.854,0-114.457
				c-2.138-16.603-10.188-32.199-17.735-48.298c-5.862-12.505-5.046-27.136-4.389-33.045c0.253-2.274,0.367-4.538,0.364-6.826
				c-0.015-13.916-0.199-60.161-1.887-97.73c0,0,4.159-40.388-26.287-77.73L379.28,297.719z"/>
			<path style="opacity:0.3;fill:#947FAD;" d="M386.738,530.155c0,0,5.982,1.016,9.538-2.541l-5.325,29.668L386.738,530.155z"/>
			<path style="opacity:0.3;fill:#947FAD;" d="M505.434,551.159c-2.138-16.603-10.188-32.199-17.735-48.298
				c-5.862-12.505-5.046-27.136-4.389-33.045c0.253-2.274,0.367-4.538,0.365-6.826c-0.004-3.954-0.022-10.523-0.085-18.756
				l-0.828-1.073c0.698-34.575-0.857-76.746-0.804-78.837c0.618-3.671,0.457-15.406-4.199-32.945
				c-21.258,27.763-51.912,25.92-67.694,24.366c-4.164-0.41-7.326,3.636-5.934,7.581c0.608,1.723,1.238,3.517,1.886,5.371
				c7.714,24.609,20.205,78.38,7.972,141.689c0,0,6.737,16.766,5.129,33.369c-1.458,15.056-0.068,116.589,0.204,135.368
				c2.034-0.481,4.388-1.509,7.121-3.445c0,0,13.584-75.969,11.068-103.137c-2.516-27.168-8.553-39.745-11.068-48.801
				c-2.516-9.056,0-26.162,0-27.671c0-0.244,0.302-1.434,0.8-3.235l7.313-24.75c1.841-6.088,3.267-10.754,3.267-10.754
				s20.119,42.758,25.795,53.056c7.593,16.61,13.008,28.421,16.756,35.833c4.23,11.187,8.613,26.084,10.967,43.947
				c4.107,31.157,1.719,64.937,0.54,77.709c3.461,0.456,7.987,0.125,13.55-2.259C505.434,665.617,507.572,567.762,505.434,551.159z"
				/>
			<path style="opacity:0.3;fill:#947FAD;" d="M379.28,297.719c0,0,54.59,30.421,76.221-10.188L379.28,297.719z"/>
			<path style="fill:#292929;" d="M438.871,457.663l-2.092-0.665c14.161-44.533,11.243-81.84,11.213-82.211l2.187-0.184
				C450.211,374.978,453.172,412.695,438.871,457.663z"/>
			<path style="fill:#292929;" d="M430.162,379.06l-0.064-2.195c20.625-0.615,37.852-9.228,38.026-9.316l0.993,1.96
				C468.941,369.596,451.296,378.43,430.162,379.06z"/>
			
				<rect x="454.385" y="504" transform="matrix(0.9092 -0.4164 0.4164 0.9092 -171.1599 236.018)" style="fill:#292929;" width="2.195" height="12.774"/>
			<path style="fill:#F7BCB2;" d="M446.316,164.268c0,0-7.538-24.275-6.784-26.615c0.754-2.34,14.364-24.003,10.742-39.213
				c-3.622-15.21-22.797-26.389-42.184-18.608c-19.042,7.642-21.823,19.496-20.668,30.379c0.326,3.07,1.521,7.83,0.692,12.391
				c-2.1,11.551,4.842,22.351,14.533,32.148c0.753,0.762,1.883,1.022,2.952,0.944c3.455-0.251,11.215-1.261,14.055-5.292
				l-0.612,13.865C419.041,164.268,435.121,170.256,446.316,164.268z"/>
			<path style="fill:#7D433A;" d="M393.738,97.152c0,0,16.28,13.25,32.342,20.895c0,0,6.582-8.126,10.615-1.861
				c5.272,8.19-6.037,14.747-6.037,14.747l11.016,17.399c0,0,13.205-29.245,11.053-44.965
				c-2.152-15.719-14.607-30.392-34.723-29.953c-22.747,0.496-39.526,22.08-30.784,33.758
				C387.22,107.171,386.839,102.114,393.738,97.152z"/>
			<path style="fill:#292929;" d="M420.57,151.005l-1.835-1.205c4.003-6.094,4.492-10.852,4.496-10.899l2.187,0.198
				C425.398,139.314,424.899,144.414,420.57,151.005z"/>
			<path style="fill:#292929;" d="M391.541,122.587c0.035,1.172,0.697,2.102,1.478,2.079c0.781-0.023,1.386-0.993,1.35-2.164
				c-0.035-1.172-0.697-2.102-1.478-2.079C392.11,120.446,391.506,121.415,391.541,122.587z"/>
			<path style="fill:#7D433A;" d="M390.99,116.361l-1.758-1.316c0.071-0.094,1.749-2.308,4.348-2.58
				c1.574-0.155,3.083,0.392,4.509,1.649l-1.449,1.649c-0.943-0.833-1.893-1.201-2.819-1.115
				C392.184,114.811,391.002,116.345,390.99,116.361z"/>
			<path style="fill:#292929;" d="M428.321,126.011c-0.343-3.009,0.201-5.28,1.619-6.748c1.724-1.786,4.059-1.623,4.162-1.618
				l-0.172,2.189l0.086-1.095l-0.075,1.096c-0.064-0.011-1.445-0.076-2.44,0.97c-0.913,0.964-1.258,2.678-0.997,4.957
				L428.321,126.011z"/>
			<path style="opacity:0.3;fill:#947FAD;" d="M387.587,111.495c0,0-2.185-4.569,5.386-10.292c0,0,11.337,6.799,33.107,16.844
				c0,0,4.055-5.026,7.908-4.086c0,0-2.736-1.434-7.907,0.046c0,0-22.263-5.812-31.578-21.148c0,0-9.045-3.767-9.577,8.276
				c0,0,0.073,2.965,2.294,6.036C387.22,107.171,387.28,109.656,387.587,111.495z"/>
			<path style="fill:#F7BCB2;" d="M388.878,119.941c0,0-1.045,4.725-2.605,8.556c-1.231,3.023,2.525,7.503,4.441,6.738
				C392.63,134.469,388.878,119.941,388.878,119.941z"/>
			<path style="opacity:0.3;fill:#947FAD;" d="M393.483,135.818c-0.877,0-4.166-0.426-4.203-0.431
				c0.93,2.646,2.248,5.242,3.867,7.786C393.562,140.152,394.058,135.818,393.483,135.818z"/>
			<path style="fill:#6590CF;" d="M386.273,128.496c0,0,14.206,3.669,25.929-2.485c0,0,7.912,12.706,12.102,12.327
				c0,0-9.738,19.665-19.949,17.68C391.104,153.442,383.118,139.28,386.273,128.496z"/>
			
				<line style="fill:none;stroke:#6590CF;stroke-width:2;stroke-miterlimit:10;" x1="411.302" y1="127.845" x2="426.528" y2="116.373"/>
			
				<line style="fill:none;stroke:#6590CF;stroke-width:2;stroke-miterlimit:10;" x1="422.076" y1="139.28" x2="431.161" y2="130.617"/>
			<g>
				<path style="fill:#51A683;" d="M472.103,173.193c-6.132-4.726-16.351-2.87-25.787-9.967h-27.275c0,0-8.397,6.115-22.027,6.2
					c-10.361,0.065-15.093,19.621-15.093,19.621c-0.719,2.652-7.547,32.45-8.679,40.374c-0.099,0.689-0.238,1.466-0.407,2.301
					c0.001,0.001,10.351,11.097,24.469,8.721l-18.025,46.81v10.465c48.298,21.508,76.221-10.188,76.221-10.188l-9.433-30.564
					l17.357-38.488l8.151-14.434C475.736,196.104,479.341,178.772,472.103,173.193z"/>
				<path style="fill:#F7BCB2;" d="M372.835,231.723c-1.775,8.77-7.022,24.51-7.022,24.51l-36.672-1.149
					c-0.672,6.699-9.597,11.441-9.597,11.441l59.736,20.339v0.389l18.025-46.81C383.186,242.821,372.836,231.724,372.835,231.723z"
					/>
			</g>
			<path style="fill:#292929;" d="M394.901,240.738c4.509-15.079,7.77-27.901,7.84-28.173l2.127,0.538
				c-0.272,1.074-3.324,13.08-7.563,27.341"/>
			<path style="fill:#292929;" d="M432.309,270.78c-2.288-6.254-3.773-23.916-3.836-24.664l-0.028-0.319l0.15-0.283
				c7.388-14.038,16.033-55.516,16.121-55.934l2.148,0.446c-0.352,1.704-8.683,41.666-16.176,56.224
				c0.212,2.432,1.655,18.239,3.683,23.777L432.309,270.78z"/>
			
				<line style="fill:none;stroke:#292929;stroke-width:2;stroke-miterlimit:10;" x1="365.813" y1="256.234" x2="362.661" y2="261.528"/>
			<path style="fill:#292929;" d="M379.28,297.719c0,0-1.565,124.156-6.445,144.577c0,0,52.604,36.305,117.65,0
				c0,0,2.836-119.125-34.984-154.765C455.501,287.531,433.191,299.535,379.28,297.719z"/>
			<path style="opacity:0.22;fill:#6590CF;" d="M490.485,442.296c0,0,2.836-119.125-34.984-154.765l-9.433-30.564l17.357-38.488
				l8.151-14.434c4.16-7.942,7.765-25.273,0.527-30.853c-6.132-4.726-16.351-2.87-25.787-9.967h-0.321
				c-1.429-4.667-6.141-21.502-6.564-23.613c-0.868-4.331-2.269-9.738-3.501-13.337l-4.769,4.34l-5.101,5.921l-2.279,11.292
				l0.523,15.37c0,0-12.157,5.296-24.42,12.356c-12.263,7.059-16.406,63.219-16.406,63.22c3.866,1.574,8.586,2.55,13.827,1.668
				l-7.815,20.295c0,0.002,1.934,24.257,2.05,37.356c0.116,13.1-1.209,103.364-10.631,148.742l0,0
				C398.045,455.279,440.605,470.136,490.485,442.296z"/>
			<path style="opacity:0.32;fill:#6590CF;" d="M387.695,142.614c2.974,6.433,8.915,11.899,16.661,13.405
				c8.603,1.673,16.869-12.022,19.26-16.377l-2.419-2.623c-1.84-1.422-3.828-3.765-5.467-5.927l-0.001-0.001
				C402.797,144.318,392.447,143.878,387.695,142.614z"/>
		</g>
	</g>
</g>
</svg>
