<?xml version="1.0" encoding="utf-8"?>
<!-- Generator: Adobe Illustrator 27.5.0, SVG Export Plug-In . SVG Version: 6.00 Build 0)  -->
<svg version="1.1" xmlns="http://www.w3.org/2000/svg" xmlns:xlink="http://www.w3.org/1999/xlink" x="0px" y="0px"
	 viewBox="0 0 3710 3710" style="enable-background:new 0 0 3710 3710;" xml:space="preserve">
<g id="Background">
	<g>
		<g>
			<rect style="fill:#FFFFFF;" width="3710" height="3710"/>
		</g>
	</g>
</g>
<g id="Illustration">
	<g>
		<linearGradient id="SVGID_1_" gradientUnits="userSpaceOnUse" x1="3611.3955" y1="4084.8379" x2="1116.2506" y2="986.0244">
			<stop  offset="0" style="stop-color:#DAE3FE"/>
			<stop  offset="1" style="stop-color:#E9EFFD"/>
		</linearGradient>
		<path style="fill:url(#SVGID_1_);" d="M2927.318,2861.149c-57.441,60.247-111.792,99.1-154.733,129.797
			c-504.767,360.831-1102.04,255.651-1228.978,229.964c-187.447-37.93-549.777-111.248-811.735-418.162
			c-396.321-464.335-334.608-1195.882-27.195-1678.786c56.231-88.331,353.258-578.591,956.964-657.214
			c365.357-47.581,791.245,48.385,1099.662,305.817C3408.697,1312.939,3362.609,2404.59,2927.318,2861.149z"/>
		<g>
			<path style="fill:#91B3FA;" d="M1495.189,1133.668c-0.19-9.93-8.473-17.921-18.625-17.921H860.794
				c-10.289,0-21.217,8.237-21.217,18.303v1406.035c0,7.513,4.35,14.718,9.788,20.024c5.438,5.306,13.457,8.275,21.137,8.256
				l622.514-1.663c7.746-0.02,15.321-3.083,20.739-8.499c5.419-5.417,8.469-12.754,8.324-20.331L1495.189,1133.668z"/>
			<g style="opacity:0.46;">
				<polygon style="fill:#FFFFFF;" points="1141.56,1215.39 940.128,1214.707 940.203,1190.049 1141.41,1190.672 				"/>
				<polygon style="fill:#FFFFFF;" points="1142.113,1306.214 939.852,1305.312 939.928,1280.451 1141.961,1281.293 				"/>
				<polygon style="fill:#FFFFFF;" points="1142.67,1397.79 939.574,1396.663 939.65,1371.597 1142.517,1372.663 				"/>
				<polygon style="fill:#FFFFFF;" points="1143.231,1490.128 939.293,1488.772 939.37,1463.498 1143.077,1464.791 				"/>
				<polygon style="fill:#FFFFFF;" points="1143.797,1583.233 939.01,1581.645 939.088,1556.161 1143.642,1557.685 				"/>
				<polygon style="fill:#FFFFFF;" points="1144.943,1771.791 938.437,1769.727 938.516,1743.814 1144.786,1745.811 				"/>
				<polygon style="fill:#FFFFFF;" points="1146.7,2060.646 937.56,2057.839 937.641,2031.262 1146.538,2034 				"/>
				<polygon style="fill:#FFFFFF;" points="1144.368,1677.117 938.725,1675.294 938.804,1649.596 1144.211,1651.355 				"/>
				<polygon style="fill:#FFFFFF;" points="1145.524,1867.265 938.147,1864.958 938.227,1838.825 1145.365,1841.066 				"/>
				<polygon style="fill:#FFFFFF;" points="1146.109,1963.546 937.855,1960.991 937.935,1934.638 1145.949,1937.125 				"/>
				<polygon style="fill:#FFFFFF;" points="1147.296,2158.577 937.262,2155.514 937.344,2128.71 1147.132,2131.702 				"/>
				<polygon style="fill:#FFFFFF;" points="1147.896,2257.348 936.962,2254.024 937.044,2226.99 1147.731,2230.242 				"/>
				<polygon style="fill:#FFFFFF;" points="1148.502,2356.973 936.659,2353.384 936.742,2326.118 1148.335,2329.633 				"/>
				<polygon style="fill:#FFFFFF;" points="1149.113,2457.457 936.354,2453.6 936.438,2426.097 1148.945,2429.881 				"/>
				<polygon style="fill:#FFFFFF;" points="1405.654,1216.284 1202.957,1215.598 1202.738,1190.861 1405.206,1191.487 				"/>
				<polygon style="fill:#FFFFFF;" points="1407.298,1307.399 1203.763,1306.49 1203.542,1281.55 1406.847,1282.397 				"/>
				<polygon style="fill:#FFFFFF;" points="1408.956,1399.269 1204.575,1398.134 1204.353,1372.987 1408.501,1374.059 				"/>
				<polygon style="fill:#FFFFFF;" points="1410.628,1491.906 1205.394,1490.542 1205.169,1465.186 1410.168,1466.486 				"/>
				<polygon style="fill:#FFFFFF;" points="1412.313,1585.315 1206.22,1583.717 1205.994,1558.15 1411.85,1559.683 				"/>
				<polygon style="fill:#FFFFFF;" points="1415.727,1774.497 1207.892,1772.42 1207.662,1746.42 1415.256,1748.43 				"/>
				<polygon style="fill:#FFFFFF;" points="1420.957,2064.327 1210.454,2061.502 1210.218,2034.834 1420.474,2037.59 				"/>
				<polygon style="fill:#FFFFFF;" points="1414.013,1679.509 1207.052,1677.674 1206.824,1651.891 1413.546,1653.661 				"/>
				<polygon style="fill:#FFFFFF;" points="1417.455,1870.29 1208.738,1867.968 1208.506,1841.749 1416.981,1844.003 				"/>
				<polygon style="fill:#FFFFFF;" points="1419.199,1966.896 1209.593,1964.325 1209.358,1937.883 1418.72,1940.385 				"/>
				<polygon style="fill:#FFFFFF;" points="1422.73,2162.594 1211.322,2159.51 1211.084,2132.614 1422.244,2135.627 				"/>
				<polygon style="fill:#FFFFFF;" points="1424.519,2261.707 1212.198,2258.361 1211.958,2231.233 1424.027,2234.507 				"/>
				<polygon style="fill:#FFFFFF;" points="1426.323,2361.678 1213.082,2358.066 1212.84,2330.704 1425.827,2334.243 				"/>
				<polygon style="fill:#FFFFFF;" points="1428.142,2462.517 1213.973,2458.634 1213.728,2431.034 1427.643,2434.842 				"/>
			</g>
		</g>
		<g>
			<path style="fill:#BDD0FB;" d="M3236.927,1082.411c-0.393-21.013-17.421-38.304-38.294-38.304H2409.68
				c-21.153,0-41.927,18.194-41.927,39.493v1903.718c0,10.247,5.863,20.072,13.068,27.308c7.206,7.235,17.88,11.285,28.057,11.258
				l824.892-2.268c10.264-0.028,20.313-4.204,27.493-11.591c7.18-7.387,11.228-17.597,11.035-27.931L3236.927,1082.411z"/>
			<g style="opacity:0.5;">
				<g>
					<polygon style="fill:#FFFFFF;" points="2655.905,1268.436 2431.15,1268.132 2429.367,1152.133 2654.34,1152.133 					"/>
					<polygon style="fill:#FFFFFF;" points="2907.83,1268.379 2683.3,1268.074 2681.762,1152.133 2906.51,1152.133 					"/>
					<polygon style="fill:#FFFFFF;" points="3159.501,1268.32 2935.198,1268.016 2933.904,1152.133 3158.425,1152.133 					"/>
				</g>
				<g>
					<polygon style="fill:#FFFFFF;" points="2658.713,1476.651 2434.35,1476.795 2432.573,1361.553 2657.155,1361.46 					"/>
					<polygon style="fill:#FFFFFF;" points="2910.2,1476.489 2686.061,1476.633 2684.528,1361.449 2908.884,1361.355 					"/>
					<g>
						<polygon style="fill:#FFFFFF;" points="3161.434,1476.327 2937.52,1476.471 2936.231,1361.344 3160.361,1361.251 						"/>
					</g>
				</g>
				<g>
					<polygon style="fill:#FFFFFF;" points="2661.513,1683.435 2437.54,1683.672 2435.769,1568.829 2659.959,1568.643 					"/>
					<polygon style="fill:#FFFFFF;" points="2912.562,1683.169 2688.813,1683.405 2687.285,1568.621 2911.25,1568.435 					"/>
					<polygon style="fill:#FFFFFF;" points="3163.359,1682.903 2939.834,1683.141 2938.55,1568.412 3162.29,1568.227 					"/>
				</g>
				<g>
					<polygon style="fill:#FFFFFF;" points="2664.302,1889.502 2440.718,1889.831 2438.954,1775.386 2662.753,1775.108 					"/>
					<polygon style="fill:#FFFFFF;" points="2914.915,1889.134 2691.554,1889.462 2690.033,1775.075 2913.609,1774.797 					"/>
					<polygon style="fill:#FFFFFF;" points="3165.278,1888.767 2942.141,1889.094 2940.861,1774.764 3164.213,1774.486 					"/>
				</g>
				<g>
					<polygon style="fill:#FFFFFF;" points="2667.082,2094.858 2443.885,2095.278 2442.127,1981.229 2665.539,1980.859 					"/>
					<polygon style="fill:#FFFFFF;" points="2917.26,2094.388 2694.287,2094.807 2692.771,1980.814 2915.959,1980.446 					"/>
					<polygon style="fill:#FFFFFF;" points="3167.19,2093.919 2944.439,2094.337 2943.163,1980.401 3166.129,1980.033 					"/>
				</g>
				<g>
					<polygon style="fill:#FFFFFF;" points="2669.852,2299.506 2447.042,2300.015 2445.29,2186.36 2668.314,2185.9 					"/>
					<polygon style="fill:#FFFFFF;" points="2919.598,2298.935 2697.01,2299.443 2695.498,2185.844 2918.301,2185.385 					"/>
					<polygon style="fill:#FFFFFF;" points="3169.095,2298.364 2946.729,2298.872 2945.458,2185.329 3168.038,2184.87 					"/>
				</g>
				<g>
					<polygon style="fill:#FFFFFF;" points="2672.613,2503.448 2450.188,2504.047 2448.441,2390.783 2671.08,2390.234 					"/>
					<polygon style="fill:#FFFFFF;" points="2921.928,2502.776 2699.724,2503.375 2698.218,2390.167 2920.634,2389.617 					"/>
					<polygon style="fill:#FFFFFF;" points="3170.995,2502.105 2949.012,2502.703 2947.745,2389.551 3169.94,2389.002 					"/>
				</g>
				<g>
					<polygon style="fill:#FFFFFF;" points="2675.363,2706.689 2453.323,2707.377 2451.582,2594.503 2673.836,2593.864 					"/>
					<polygon style="fill:#FFFFFF;" points="2924.249,2705.918 2702.428,2706.605 2700.927,2593.786 2922.96,2593.147 					"/>
					<polygon style="fill:#FFFFFF;" points="3172.887,2705.147 2951.287,2705.834 2950.024,2593.07 3171.836,2592.432 					"/>
				</g>
				<g>
					<polygon style="fill:#FFFFFF;" points="2678.106,2909.233 2456.447,2910.01 2454.712,2797.523 2676.583,2796.795 					"/>
					<polygon style="fill:#FFFFFF;" points="2926.563,2908.362 2705.123,2909.138 2703.627,2796.706 2925.278,2795.979 					"/>
					<polygon style="fill:#FFFFFF;" points="3174.773,2907.493 2953.554,2908.268 2952.295,2795.891 3173.726,2795.164 					"/>
				</g>
			</g>
		</g>
		<g>
			<path style="fill:#BDD0FB;" d="M1226.819,1592.256c-0.356-16.062-15.817-29.279-34.768-29.279H475.76
				c-19.205,0-38.066,13.907-38.066,30.188v1455.171c0,7.832,5.324,15.343,11.864,20.874c6.542,5.53,16.234,8.626,25.473,8.605
				l748.922-1.733c9.319-0.021,18.443-3.213,24.962-8.86c6.518-5.647,10.193-13.451,10.018-21.349L1226.819,1592.256z"/>
			<g style="opacity:0.5;">
				<g>
					<polygon style="fill:#FFFFFF;" points="699.307,1734.451 495.252,1734.22 493.633,1645.551 697.887,1645.551 					"/>
					<polygon style="fill:#FFFFFF;" points="928.031,1734.407 724.18,1734.174 722.784,1645.551 926.833,1645.551 					"/>
					<polygon style="fill:#FFFFFF;" points="1156.524,1734.362 952.878,1734.13 951.704,1645.551 1155.547,1645.551 					"/>
				</g>
				<g>
					<polygon style="fill:#FFFFFF;" points="701.858,1893.607 498.158,1893.718 496.544,1805.628 700.442,1805.557 					"/>
					<polygon style="fill:#FFFFFF;" points="930.183,1893.483 726.687,1893.593 725.295,1805.549 928.988,1805.477 					"/>
					<polygon style="fill:#FFFFFF;" points="1158.278,1893.36 954.987,1893.469 953.816,1805.469 1157.305,1805.397 					"/>
				</g>
				<g>
					<polygon style="fill:#FFFFFF;" points="704.399,2051.669 501.053,2051.85 499.446,1964.067 702.989,1963.924 					"/>
					<polygon style="fill:#FFFFFF;" points="932.327,2051.466 729.185,2051.646 727.798,1963.907 931.136,1963.766 					"/>
					<polygon style="fill:#FFFFFF;" points="1160.026,2051.263 957.088,2051.444 955.922,1963.748 1159.056,1963.606 					"/>
				</g>
				<g>
					<polygon style="fill:#FFFFFF;" points="706.931,2209.184 503.939,2209.435 502.337,2121.956 705.525,2121.743 					"/>
					<polygon style="fill:#FFFFFF;" points="934.464,2208.902 731.674,2209.153 730.292,2121.717 933.278,2121.505 					"/>
					<polygon style="fill:#FFFFFF;" points="1161.769,2208.622 959.182,2208.872 958.019,2121.479 1160.802,2121.268 					"/>
				</g>
				<g>
					<polygon style="fill:#FFFFFF;" points="709.455,2366.154 506.815,2366.475 505.218,2279.298 708.054,2279.015 					"/>
					<polygon style="fill:#FFFFFF;" points="936.593,2365.795 734.155,2366.116 732.778,2278.981 935.411,2278.699 					"/>
					<polygon style="fill:#FFFFFF;" points="1163.505,2365.436 961.268,2365.756 960.11,2278.665 1162.541,2278.384 					"/>
				</g>
				<g>
					<polygon style="fill:#FFFFFF;" points="711.97,2522.584 509.681,2522.973 508.089,2436.096 710.574,2435.745 					"/>
					<polygon style="fill:#FFFFFF;" points="938.716,2522.147 736.628,2522.536 735.255,2435.702 937.538,2435.351 					"/>
					<polygon style="fill:#FFFFFF;" points="1165.235,2521.71 963.348,2522.099 962.194,2435.309 1164.274,2434.958 					"/>
				</g>
				<g>
					<polygon style="fill:#FFFFFF;" points="714.477,2678.474 512.537,2678.932 510.951,2592.354 713.085,2591.935 					"/>
					<polygon style="fill:#FFFFFF;" points="940.83,2677.96 739.091,2678.418 737.723,2591.883 939.656,2591.464 					"/>
					<polygon style="fill:#FFFFFF;" points="1166.959,2677.447 965.421,2677.905 964.27,2591.413 1166.001,2590.993 					"/>
				</g>
				<g>
					<polygon style="fill:#FFFFFF;" points="716.974,2833.828 515.383,2834.354 513.802,2748.074 715.588,2747.586 					"/>
					<polygon style="fill:#FFFFFF;" points="942.938,2833.238 741.546,2833.763 740.183,2747.526 941.768,2747.039 					"/>
					<polygon style="fill:#FFFFFF;" points="1168.677,2832.649 967.485,2833.174 966.339,2746.979 1167.723,2746.492 					"/>
				</g>
				<g>
					<polygon style="fill:#FFFFFF;" points="719.464,2988.649 518.219,2989.243 516.644,2903.26 718.081,2902.703 					"/>
					<polygon style="fill:#FFFFFF;" points="945.039,2987.983 743.993,2988.576 742.635,2902.635 943.872,2902.08 					"/>
					<polygon style="fill:#FFFFFF;" points="1170.39,2987.319 969.544,2987.911 968.401,2902.012 1169.439,2901.456 					"/>
				</g>
			</g>
		</g>
		<g>
			<g>
				
					<linearGradient id="SVGID_00000087400169501838478730000016472956785861035912_" gradientUnits="userSpaceOnUse" x1="1596.3469" y1="4410.855" x2="2408.3032" y2="-650.3249">
					<stop  offset="0" style="stop-color:#09005D"/>
					<stop  offset="1" style="stop-color:#1A0F91"/>
				</linearGradient>
				<path style="fill:url(#SVGID_00000087400169501838478730000016472956785861035912_);" d="M1213.962,644.478
					c-8.667,409.062-36.781,1820.06-23.359,2320.075c1.422,52.972,37.719,95.49,83,97.222
					c223.949,8.575,1044.938,30.305,1411.246,12.327c76.296-3.744,136.968-76.044,138.551-165.357
					c7.613-429.361,24.408-1636.987-15.509-2190.203c-4.783-66.284-49.255-119.069-105.833-125.688
					c-243.893-28.545-1068.412-98.313-1384.879-74.29C1260.102,522.899,1215.382,577.591,1213.962,644.478z"/>
				<path style="fill:#91B3FA;" d="M1313.888,769.982c-12.052,330.171-50.076,1428.575-38.009,1834.743
					c1.764,59.366,41.761,107.37,92.454,110.838c208.708,14.29,920.779,45.794,1226.904,17.118
					c55.124-5.164,98.38-57.316,101.354-121.917c15.514-336.841,60.056-1359.61,48.487-1761.225
					c-1.844-64.069-44.268-116.393-98.844-122.123c-225.794-23.719-982.446-80.146-1242.584-63.544
					C1354.816,666.987,1315.977,712.822,1313.888,769.982z"/>
				<path style="opacity:0.5;fill:#FFFFFF;" d="M1767.431,590.043L1767.431,590.043c0,12.552,8.363,22.904,19.078,23.56
					c52.897,3.241,201.903,12.411,268.498,16.931c13.129,0.891,23.436-12.917,20.945-28.022l-0.426-2.581
					c-1.699-10.309-9.007-18.067-17.945-19.025c-45.012-4.826-180.838-18.206-270.835-14.447
					C1775.934,566.909,1767.431,577.39,1767.431,590.043z"/>
			</g>
			<g>
				
					<linearGradient id="SVGID_00000109726488245034602480000005371490899723764389_" gradientUnits="userSpaceOnUse" x1="2063.5718" y1="-370.0435" x2="2001.6885" y2="510.0713">
					<stop  offset="0" style="stop-color:#E1473D"/>
					<stop  offset="1" style="stop-color:#E9605A"/>
				</linearGradient>
				<path style="fill:url(#SVGID_00000109726488245034602480000005371490899723764389_);" d="M2253.654,1151.148h-566.964
					c-11.598,0-21-9.402-21-21V786.471c0-11.598,9.402-21,21-21h566.964c11.598,0,21,9.402,21,21v343.677
					C2274.654,1141.746,2265.252,1151.148,2253.654,1151.148z"/>
				<g>
					<path style="fill:#FFFFFF;" d="M2135.516,849.886c-1.914-2.353-4.916-3.33-8.101-3.263l-289.928,6.082l-7.324-23.264
						c-1.018-3.241-4.066-5.316-7.513-5.226l-39.806,1.046c-4.269,0.112-7.725,3.08-7.725,7.34c0,4.26,3.457,7.056,7.725,6.955
						l34.017-0.804l61.553,196.69c1.036,3.311,4.144,5.588,7.667,5.635l203.499,2.732c4.776,0.064,8.653-2.933,8.653-7.449
						c0-4.515-3.877-7.607-8.653-7.658l-197.561-2.13l-15.856-51.069l217.103,0.329c4.445,0.007,8.363-2.903,9.609-6.936
						l34.265-110.79C2138.035,855.216,2137.433,852.24,2135.516,849.886z"/>
					<path style="fill:#FFFFFF;" d="M1915.853,1053.209c-16.744-0.26-30.29,12.772-30.29,29.049
						c0,16.277,13.546,29.875,30.29,30.315c16.844,0.443,30.625-12.584,30.625-29.041
						C1946.477,1067.074,1932.697,1053.471,1915.853,1053.209z M1915.853,1096.742c-7.826-0.183-14.177-6.53-14.177-14.148
						c0-7.618,6.351-13.699,14.177-13.555c7.848,0.144,14.25,6.492,14.25,14.15
						C1930.102,1090.846,1923.7,1096.926,1915.853,1096.742z"/>
					<path style="fill:#FFFFFF;" d="M2051.507,1055.318c-17.573-0.273-31.789,13.071-31.789,29.745
						c0,16.674,14.216,30.612,31.789,31.074c17.682,0.465,32.149-12.874,32.149-29.737
						C2083.656,1069.536,2069.189,1055.592,2051.507,1055.318z M2051.507,1099.918c-8.214-0.192-14.879-6.698-14.879-14.502
						c0-7.805,6.666-14.031,14.879-13.88c8.238,0.151,14.958,6.658,14.958,14.504
						C2066.465,1093.885,2059.745,1100.111,2051.507,1099.918z"/>
				</g>
			</g>
			<g>
				<g>
					<path style="opacity:0.43;fill:#FFFFFF;" d="M1953.234,1850.415h-603.33c-6.051,0-10.956-4.905-10.956-10.956v-610.892
						c0-6.051,4.905-10.956,10.956-10.956h603.33c6.051,0,10.956,4.905,10.956,10.956v610.892
						C1964.191,1845.51,1959.285,1850.415,1953.234,1850.415z"/>
					<path style="fill:#FFFFFF;" d="M1782.599,1302.826h-268.318c-2.567,0-4.667-2.1-4.667-4.667v-33.52
						c0-2.567,2.1-4.667,4.667-4.667h268.318c2.567,0,4.667,2.1,4.667,4.667v33.52
						C1787.266,1300.726,1785.166,1302.826,1782.599,1302.826z"/>
					<path style="opacity:0.59;fill:#FFFFFF;" d="M1868.058,1796.763h-441.457c-5.063,0-9.167-4.104-9.167-9.167v-430.496
						c0-5.063,4.104-9.167,9.167-9.167h441.457c5.063,0,9.167,4.104,9.167,9.167v430.496
						C1877.225,1792.659,1873.121,1796.763,1868.058,1796.763z"/>
				</g>
				<g>
					<path style="opacity:0.43;fill:#FFFFFF;" d="M1948.425,2629.764h-603.33c-6.051,0-10.956-4.906-10.956-10.956v-610.892
						c0-6.051,4.905-10.956,10.956-10.956h603.33c6.051,0,10.956,4.905,10.956,10.956v610.892
						C1959.381,2624.858,1954.476,2629.764,1948.425,2629.764z"/>
					<path style="fill:#FFFFFF;" d="M1787.042,2082.074h-268.318c-2.567,0-4.667-2.1-4.667-4.667v-33.52
						c0-2.567,2.1-4.667,4.667-4.667h268.318c2.567,0,4.667,2.1,4.667,4.667v33.52
						C1791.708,2079.974,1789.608,2082.074,1787.042,2082.074z"/>
					<path style="opacity:0.59;fill:#FFFFFF;" d="M1871.39,2572.629h-441.457c-5.063,0-9.167-4.104-9.167-9.167v-430.496
						c0-5.063,4.104-9.167,9.167-9.167h441.457c5.063,0,9.167,4.104,9.167,9.167v430.496
						C1880.557,2568.525,1876.453,2572.629,1871.39,2572.629z"/>
				</g>
				<g>
					<path style="opacity:0.43;fill:#FFFFFF;" d="M2636.191,2629.764h-603.33c-6.051,0-10.956-4.906-10.956-10.956v-610.892
						c0-6.051,4.905-10.956,10.956-10.956h603.33c6.051,0,10.956,4.905,10.956,10.956v610.892
						C2647.148,2624.858,2642.242,2629.764,2636.191,2629.764z"/>
					<path style="fill:#FFFFFF;" d="M2475.617,2086.585h-268.318c-2.567,0-4.667-2.1-4.667-4.667v-33.52
						c0-2.567,2.1-4.667,4.667-4.667h268.318c2.567,0,4.667,2.1,4.667,4.667v33.52
						C2480.283,2084.485,2478.183,2086.585,2475.617,2086.585z"/>
					<path style="opacity:0.59;fill:#FFFFFF;" d="M2559.965,2577.14h-441.457c-5.063,0-9.167-4.104-9.167-9.167v-430.496
						c0-5.063,4.104-9.167,9.167-9.167h441.457c5.063,0,9.167,4.104,9.167,9.167v430.496
						C2569.132,2573.035,2565.028,2577.14,2559.965,2577.14z"/>
				</g>
				<g>
					<path style="opacity:0.43;fill:#FFFFFF;" d="M2641.001,1850.415h-603.33c-6.051,0-10.956-4.905-10.956-10.956v-610.892
						c0-6.051,4.905-10.956,10.956-10.956h603.33c6.051,0,10.957,4.905,10.957,10.956v610.892
						C2651.958,1845.51,2647.052,1850.415,2641.001,1850.415z"/>
					<path style="fill:#FFFFFF;" d="M2483.391,1303.953h-268.318c-2.567,0-4.667-2.1-4.667-4.667v-33.52
						c0-2.567,2.1-4.667,4.667-4.667h268.318c2.567,0,4.667,2.1,4.667,4.667v33.52
						C2488.058,1301.853,2485.958,1303.953,2483.391,1303.953z"/>
					<path style="opacity:0.59;fill:#FFFFFF;" d="M2557.744,1792.252h-441.457c-5.063,0-9.167-4.104-9.167-9.167V1352.59
						c0-5.063,4.104-9.167,9.167-9.167h441.457c5.063,0,9.167,4.104,9.167,9.167v430.496
						C2566.911,1788.148,2562.807,1792.252,2557.744,1792.252z"/>
				</g>
			</g>
		</g>
		<g>
			<g>
				<g>
					<path style="fill:#91B3FA;" d="M950.313,2281.449c-16.115-33.573-27.642-68.719-30.331-106.986
						c-6.775-96.418,49.275-185.21,90.451-268.224c37.844-76.298,65.972-189.988-61.725-179.871
						c-101.734,8.06-221.337,109.446-234.984,215.167c-16.148,125.125,44.766,282.913-27.455,396.572
						c-101.034,159.004-173.911,122.566-173.911,390.886c0,114.652,63.506,177.893,136.246,212.727
						c114.81,54.98,251.711,32.764,343.185-55.762c80.813-78.208,128.863-190.637,112.612-303.511
						C1087.989,2468.448,998.575,2381.996,950.313,2281.449z"/>
					<path style="fill:#7D97F4;" d="M864.953,3146.454c-2.633,0-5.028-1.781-5.697-4.45
						c-63.332-252.792-97.805-481.966-102.463-681.157c-3.732-159.598,11.557-300.469,45.448-418.701
						c57.997-202.336,149.265-267.529,153.122-270.206c2.671-1.848,6.327-1.186,8.179,1.479c1.848,2.663,1.19,6.321-1.471,8.173l0,0
						c-0.23,0.161-23.235,16.459-52.947,57.114c-27.454,37.565-66.4,104.185-96.029,208.238
						c-33.348,117.113-48.325,256.745-44.517,415.015c4.766,197.991,39.111,425.83,102.083,677.187
						c0.788,3.149-1.125,6.342-4.272,7.131C865.906,3146.396,865.425,3146.454,864.953,3146.454z"/>
				</g>
				<path style="fill:#91B3FA;" d="M1051.684,1998.584c-4.92-1.334-10.323-1.751-16.078-1.089
					c-31.825,3.659-44.895,37.221-54.245,63.462c-8.008,22.471-17.443,49.747-12.715,74.092
					c5.112,26.321,33.065,47.792,53.347,21.068c23.055-30.377,57.649-77.015,57.859-117.269
					C1079.957,2018.839,1068.723,2003.205,1051.684,1998.584z"/>
			</g>
			<g>
				<path style="fill:#7D97F4;" d="M1365.937,2617.039c13.017-85.758-18.151-184.211-33.707-274.899
					c-8.225-47.949-12.03-95.534-4.328-143.841c7.657-48.029,30.224-99.975,9.416-147.826
					c-41.928-96.403-141.6-52.531-198.694,20.043c-66.254,84.218-84.365,221.836-109.53,327.806
					c-15.17,63.884-38.023,129.41-46.025,194.51c-13.257,107.843,11.127,182.715,62.715,233.278
					c49.48,48.499,124.839,58.554,185.37,24.844C1285.835,2820.5,1344.937,2755.383,1365.937,2617.039z"/>
				<path style="fill:#91B3FA;" d="M1137.911,3017.518c-2.816,0-5.305-2.031-5.787-4.901c-0.22-1.303-21.925-132.278-22.491-312.961
					c-0.526-166.847,17.37-411.527,105.601-629.689c1.219-3.01,4.64-4.465,7.653-3.245c3.009,1.217,4.461,4.643,3.245,7.653
					c-87.487,216.322-105.251,459.285-104.746,625.015c0.547,179.772,22.112,309.982,22.328,311.275
					c0.54,3.201-1.618,6.233-4.819,6.771C1138.564,3017.491,1138.237,3017.518,1137.911,3017.518z"/>
			</g>
		</g>
		<g>
			
				<linearGradient id="SVGID_00000041268667685853264270000012603938409956768642_" gradientUnits="userSpaceOnUse" x1="1380.9049" y1="2492.1038" x2="1045.9919" y2="4166.6733">
				<stop  offset="0" style="stop-color:#FEBBBA"/>
				<stop  offset="1" style="stop-color:#FF928E"/>
			</linearGradient>
			
				<circle style="fill:url(#SVGID_00000041268667685853264270000012603938409956768642_);" cx="1305.586" cy="2868.699" r="341.697"/>
			
				<linearGradient id="SVGID_00000021807754640810281700000000449875036009296807_" gradientUnits="userSpaceOnUse" x1="1671.2433" y1="1797.1711" x2="1549.4568" y2="2152.3826">
				<stop  offset="0" style="stop-color:#E1473D"/>
				<stop  offset="1" style="stop-color:#E9605A"/>
			</linearGradient>
			
				<circle style="fill:url(#SVGID_00000021807754640810281700000000449875036009296807_);" cx="1305.586" cy="2863.674" r="296.472"/>
			<g>
				<path style="fill:#FFFFFF;" d="M1315.625,2753.374c-21.605-0.563-36.849-6.269-45.885-17.089
					c-8.998-10.772-13.484-23.961-13.484-39.609c0-15.639,4.879-28.517,14.686-38.669c9.846-10.19,24.905-15.309,45.299-15.309
					c20.583-0.001,36.358,4.707,47.23,14.139c10.915,9.49,16.399,23.009,16.399,40.526c0,17.517-5.277,31.409-15.771,41.628
					C1353.645,2749.169,1337.444,2753.943,1315.625,2753.374z"/>
				<rect x="1261.335" y="2792.49" style="fill:#FFFFFF;" width="112.844" height="280.327"/>
				<path style="fill:#FFFFFF;" d="M1389.534,3072.817h-171.946c-0.742,0-1.343-0.601-1.343-1.343v-9.845
					c0-1.031,0.835-1.866,1.866-1.866h171.175c0.777,0,1.407,0.63,1.407,1.407v10.487
					C1390.694,3072.298,1390.175,3072.817,1389.534,3072.817z"/>
				<path style="fill:#FFFFFF;" d="M1374.179,2805.544H1201.5c-0.977,0-1.77-0.792-1.77-1.77v-9.845
					c0-0.795,0.644-1.439,1.439-1.439h171.524c0.82,0,1.485,0.665,1.485,1.485V2805.544z"/>
			</g>
		</g>
		<g>
			
				<linearGradient id="SVGID_00000013150899715461749980000007425639738450745735_" gradientUnits="userSpaceOnUse" x1="2928.4485" y1="1681.4304" x2="3226.1643" y2="1187.4923">
				<stop  offset="0" style="stop-color:#E1473D"/>
				<stop  offset="1" style="stop-color:#E9605A"/>
			</linearGradient>
			<path style="fill:url(#SVGID_00000013150899715461749980000007425639738450745735_);" d="M2695.575,1492.863
				c30.81-8.636,165.092,82.82,154.695,216.163c-10.397,133.343,53.212,173.162,77.502,240.548
				c24.29,67.386,118.436,265.614-12.9,299.893c-131.335,34.281-149.874-56.953-195.845-36.243
				c-45.972,20.712-140.541-3.564-132.195-72.63C2595.179,2071.527,2594.57,1521.172,2695.575,1492.863z"/>
			
				<linearGradient id="SVGID_00000154387443076355133220000009140944979325781160_" gradientUnits="userSpaceOnUse" x1="2579.2346" y1="1778.8557" x2="2915.729" y2="1943.7711" gradientTransform="matrix(0.9735 -0.2288 0.2288 0.9735 -561.0512 567.7313)">
				<stop  offset="0" style="stop-color:#FEBBBA"/>
				<stop  offset="1" style="stop-color:#FF928E"/>
			</linearGradient>
			<path style="fill:url(#SVGID_00000154387443076355133220000009140944979325781160_);" d="M2301.956,1517.541
				c0,0,169.926,258.01,367.146,304.783c0,0-36.218,109.644-65.505,122.66c0,0-245.233-196.989-310.909-390.159L2301.956,1517.541z"
				/>
			
				<linearGradient id="SVGID_00000093175787309386343450000015337776788346519960_" gradientUnits="userSpaceOnUse" x1="2984.4326" y1="3139.1743" x2="3078.4985" y2="3139.1743" gradientTransform="matrix(0.997 0.0777 -0.0777 0.997 229.9389 -157.9383)">
				<stop  offset="0" style="stop-color:#4F52FF"/>
				<stop  offset="1" style="stop-color:#4042E2"/>
			</linearGradient>
			<path style="fill:url(#SVGID_00000093175787309386343450000015337776788346519960_);" d="M2963.369,3181.224l1.915,44.27
				c0.364,8.398,6.4,15.487,14.653,17.087c13.933,2.702,36.365,6.107,58.619,5.495c9.768-0.269,16.823-9.589,14.596-19.104
				c-4.061-17.348-11.924-43.529-24.95-59.591l-48.647-3.793C2970.561,3164.886,2962.979,3172.211,2963.369,3181.224z"/>
			
				<linearGradient id="SVGID_00000149362226659011608440000009682127058491208119_" gradientUnits="userSpaceOnUse" x1="2586.9565" y1="3510.1106" x2="2722.3274" y2="1927.9645" gradientTransform="matrix(0.997 0.0777 -0.0777 0.997 229.9389 -157.9383)">
				<stop  offset="0" style="stop-color:#FEBBBA"/>
				<stop  offset="1" style="stop-color:#FF928E"/>
			</linearGradient>
			<path style="fill:url(#SVGID_00000149362226659011608440000009682127058491208119_);" d="M2622.404,2637.8l-11.977,47.66
				c0,0,5.78,280.661,1.984,392.449c-0.595,17.526-6.46,34.435-16.787,48.607l-53.866,73.914l127.104-62.229l3.575-14.64
				l-17.759-28.901l50.383-309.977c2.959-18.209,0.61-36.886-6.766-53.796l-21.453-49.177L2622.404,2637.8z"/>
			
				<linearGradient id="SVGID_00000133502592006191707970000009727097352495462041_" gradientUnits="userSpaceOnUse" x1="2547.3992" y1="3121.9871" x2="2699.6106" y2="3121.9871" gradientTransform="matrix(0.997 0.0777 -0.0777 0.997 229.9389 -157.9383)">
				<stop  offset="0" style="stop-color:#4F52FF"/>
				<stop  offset="1" style="stop-color:#4042E2"/>
			</linearGradient>
			<path style="fill:url(#SVGID_00000133502592006191707970000009727097352495462041_);" d="M2532.879,3211.054l38.777,3.024
				c7.259,0.566,14.363-2.233,19.239-7.64c13.313-14.765,40.749-43.459,52.787-43.325c16.206,0.181,9.675,57.335,9.675,57.335
				l9.037,0.704l17-70.328c4.277-17.695-3.25-36.142-18.686-45.792c0,0-5.811,26.967-26.734,37.465
				c-20.923,10.497-85.624,48.888-85.624,48.888s-7.429-1.657-15.793-0.81C2520.149,3191.833,2520.446,3210.084,2532.879,3211.054z"
				/>
			
				<linearGradient id="SVGID_00000021814713688909171270000012986153468481504699_" gradientUnits="userSpaceOnUse" x1="2859.2612" y1="3533.6765" x2="2994.6699" y2="1951.0865" gradientTransform="matrix(0.997 0.0777 -0.0777 0.997 229.9389 -157.9383)">
				<stop  offset="0" style="stop-color:#FEBBBA"/>
				<stop  offset="1" style="stop-color:#FF928E"/>
			</linearGradient>
			<path style="fill:url(#SVGID_00000021814713688909171270000012986153468481504699_);" d="M2787.048,2673.719
				c0,0,137.258,318.119,157.424,389.879c20.166,71.76,24.599,130.659,24.512,136.197c-0.135,8.654,9.933,17.749,39.457,20.051
				c15.237,1.188,23.176-4.339,27.29-9.965c3.511-4.8,4.164-11.099,1.952-16.62c-7.847-19.584-32.718-82.154-41.539-110.34
				c-10.531-33.654-27.126-183.74-38.541-236.363c-11.416-52.623-24.503-109.76-87.67-166.377
				C2869.935,2680.181,2827.344,2631.422,2787.048,2673.719z"/>
			
				<linearGradient id="SVGID_00000064344996052844751680000000475224209353767615_" gradientUnits="userSpaceOnUse" x1="2959.4072" y1="1473.0831" x2="3737.5288" y2="187.4922">
				<stop  offset="0" style="stop-color:#4F52FF"/>
				<stop  offset="1" style="stop-color:#4042E2"/>
			</linearGradient>
			<path style="fill:url(#SVGID_00000064344996052844751680000000475224209353767615_);" d="M2724.328,2165.11
				c-27.823-179.313,85.205-270.69,85.205-270.69c-61.448-68.934-180.202-107.381-180.202-107.381s-122.058,75.419-113.511,142.567
				c5.009,39.356,63.08,238.31,63.08,238.31S2644.035,2205.196,2724.328,2165.11z"/>
			
				<linearGradient id="SVGID_00000135674101343856295370000017984578286276187810_" gradientUnits="userSpaceOnUse" x1="3240.5583" y1="1522.1813" x2="3071.4011" y2="1819.8971">
				<stop  offset="0" style="stop-color:#4F52FF"/>
				<stop  offset="1" style="stop-color:#4042E2"/>
			</linearGradient>
			<path style="fill:url(#SVGID_00000135674101343856295370000017984578286276187810_);" d="M2809.658,2259.462
				c-12.938-52.262-85.331-94.353-85.331-94.353c-80.292,40.086-145.428,2.805-145.428,2.805s-19.687,56.791-13.42,111.483
				c6.267,54.693,44.947,406.062,44.947,406.062c101.851,29.037,264.291-0.617,264.291-0.617
				C2817.926,2562.673,2822.596,2311.724,2809.658,2259.462z"/>
			
				<linearGradient id="SVGID_00000159428427058051348340000002143100954810061477_" gradientUnits="userSpaceOnUse" x1="2610.2549" y1="1858.6825" x2="2591.9307" y2="1495.5289" gradientTransform="matrix(0.997 0.0777 -0.0777 0.997 229.9389 -157.9383)">
				<stop  offset="0" style="stop-color:#FEBBBA"/>
				<stop  offset="1" style="stop-color:#FF928E"/>
			</linearGradient>
			<path style="fill:url(#SVGID_00000159428427058051348340000002143100954810061477_);" d="M2713.895,1676.569l21.951,154.38
				c2.192,13.618-9.822,10.481-23.137,6.879c-21.805-5.898-49.658-16.715-57.85-34.678c-0.834-1.828-1.164-3.848-1.283-5.853
				l-6.309-106.356c-0.5-8.438,4.645-16.188,12.615-19.004l28.976-10.234C2700.013,1657.762,2712.015,1664.888,2713.895,1676.569z"
				/>
			
				<linearGradient id="SVGID_00000017494217180456609320000001757861395110809478_" gradientUnits="userSpaceOnUse" x1="2673.0752" y1="1801.2151" x2="2894.958" y2="1406.3381" gradientTransform="matrix(0.9967 -0.0807 0.0807 0.9967 -208.6027 192.5722)">
				<stop  offset="0" style="stop-color:#FEBBBA"/>
				<stop  offset="1" style="stop-color:#FF928E"/>
			</linearGradient>
			<path style="fill:url(#SVGID_00000017494217180456609320000001757861395110809478_);" d="M2654.237,1547.359
				c0,0-38.633,20.131-61.149,80.136c-22.517,60.005-0.043,85.048,25.766,86.646c25.809,1.597,63.917-2.051,101.25-42.659
				C2757.436,1630.874,2704.615,1523.126,2654.237,1547.359z"/>
			
				<linearGradient id="SVGID_00000150808611795754495670000017683059322149522105_" gradientUnits="userSpaceOnUse" x1="2736.7449" y1="1565.8832" x2="3034.4602" y2="1071.9456">
				<stop  offset="0" style="stop-color:#E1473D"/>
				<stop  offset="1" style="stop-color:#E9605A"/>
			</linearGradient>
			<path style="fill:url(#SVGID_00000150808611795754495670000017683059322149522105_);" d="M2690.475,1642.82
				c0,0,23.33-87.01-51.728-81.938l-16.644,13.76c0,0-31.307-44.659,12.032-70.697c43.339-26.039,94.059-11.572,137.995,34.968
				c47.555,50.372,68.08,115.278,38.47,146.971c-29.61,31.693-94.439,4.89-94.439,4.89s-7.307-17.929,2.389-50.824
				c4.594-15.587-23.188,4.911-23.188,4.911L2690.475,1642.82z"/>
			
				<linearGradient id="SVGID_00000144301850391405097210000014307781063005927835_" gradientUnits="userSpaceOnUse" x1="2720.3062" y1="1827.7521" x2="2942.1882" y2="1432.8761" gradientTransform="matrix(0.9967 -0.0807 0.0807 0.9967 -208.6027 192.5722)">
				<stop  offset="0" style="stop-color:#FEBBBA"/>
				<stop  offset="1" style="stop-color:#FF928E"/>
			</linearGradient>
			<path style="fill:url(#SVGID_00000144301850391405097210000014307781063005927835_);" d="M2699.647,1651.558
				c0,0,11.73-44.798,33.491-29.099c21.761,15.7-13.284,41.579-27.129,50.164L2699.647,1651.558z"/>
			<g>
				
					<linearGradient id="SVGID_00000016789787130774440920000004183623140593491337_" gradientUnits="userSpaceOnUse" x1="2488.2122" y1="1698.0092" x2="2693.1614" y2="2164.3145" gradientTransform="matrix(0.994 -0.1095 0.1095 0.994 -279.2107 263.9404)">
					<stop  offset="0" style="stop-color:#FEBBBA"/>
					<stop  offset="1" style="stop-color:#FF928E"/>
				</linearGradient>
				<path style="fill:url(#SVGID_00000016789787130774440920000004183623140593491337_);" d="M2303.914,1575.565
					c-1.048,5.308,18.497,11.059,27.186-11.132c-0.723-10.096,0.646-53.844-6.265-61.373
					c-36.804-40.099-104.867-87.948-104.867-87.948c-9.345,11.501,0.413,20.712,0.413,20.712l33.549,28.035
					c-5.041,12.069-11.661,22.517-13.743,36.672c-1.578,10.72,1.317,21.672,7.624,30.575c6.332,8.935,14.902,20.513,22.782,29.444
					C2285.509,1577.453,2303.914,1575.565,2303.914,1575.565z"/>
				<g>
					
						<linearGradient id="SVGID_00000005249129233939172170000003858580441832037782_" gradientUnits="userSpaceOnUse" x1="2479.8567" y1="1669.3136" x2="2402.394" y2="1502.7272" gradientTransform="matrix(0.994 -0.1095 0.1095 0.994 -279.2107 263.9404)">
						<stop  offset="0" style="stop-color:#FEBBBA"/>
						<stop  offset="1" style="stop-color:#FF928E"/>
					</linearGradient>
					<path style="fill:url(#SVGID_00000005249129233939172170000003858580441832037782_);" d="M2288.363,1558.263
						c-1.167-0.235-2.176-1.095-2.539-2.324c-3.644-12.351-14.328-45.996-19.923-53.185c-4.016-5.17-5.638-9.699-4.949-13.842
						c0.578-3.495,2.721-6.422,6.556-8.948c1.113-0.744,2.569-0.723,3.694,0.021l29.983,20.229c0.473,0.32,0.856,0.756,1.112,1.266
						l11.165,22.198c0.823,1.647,0.162,3.644-1.479,4.475c-1.637,0.812-3.645,0.169-4.475-1.479l-10.771-21.422l-27.284-18.403
						c-1.115,1.016-1.75,2.063-1.929,3.149c-0.354,2.152,0.901,5.147,3.637,8.665c7.381,9.487,19.676,50.719,21.057,55.392
						c0.521,1.765-0.49,3.618-2.255,4.139C2289.427,1558.351,2288.88,1558.367,2288.363,1558.263z"/>
				</g>
			</g>
			
				<linearGradient id="SVGID_00000134248964102359371350000010063862177326155165_" gradientUnits="userSpaceOnUse" x1="2790.7847" y1="2169.4709" x2="2741.3701" y2="1661.2085" gradientTransform="matrix(0.997 0.0777 -0.0777 0.997 229.9389 -157.9383)">
				<stop  offset="0" style="stop-color:#FEBBBA"/>
				<stop  offset="1" style="stop-color:#FF928E"/>
			</linearGradient>
			<path style="fill:url(#SVGID_00000134248964102359371350000010063862177326155165_);" d="M2754.19,1964.253
				c5.674,7.523,91.657,109.815,116.28,223.962c24.623,114.147,16.343,190.364,16.343,190.364s-25.017,18.657-16.023,31.891
				c8.994,13.233,6.621,22.238,18.117,24.806c11.497,2.567,25.752,6.185,24.012-16.508c-1.739-22.693,25.352-27.264,20.851-40.982
				c-4.479-13.654,26.18-382.043-122.124-481.967c-0.7-0.472-1.405-0.938-2.113-1.397
				C2746.838,1917.071,2745.068,1952.159,2754.19,1964.253z"/>
		</g>
	</g>
</g>
</svg>
